<?xml version="1.0" encoding="utf-8"?>
<!-- Generator: Adobe Illustrator 16.0.0, SVG Export Plug-In . SVG Version: 6.00 Build 0)  -->
<!DOCTYPE svg PUBLIC "-//W3C//DTD SVG 1.1//EN" "http://www.w3.org/Graphics/SVG/1.1/DTD/svg11.dtd">
<svg version="1.1" id="Layer_1" xmlns="http://www.w3.org/2000/svg" xmlns:xlink="http://www.w3.org/1999/xlink" x="0px" y="0px"
	 width="94.878px" height="51px" viewBox="0 0 94.878 51" enable-background="new 0 0 94.878 51" xml:space="preserve">
<g>
	<g>
		<linearGradient id="SVGID_1_" gradientUnits="userSpaceOnUse" x1="4.6538" y1="17.8037" x2="20.5316" y2="17.8037">
			<stop  offset="0" style="stop-color:#AE2160"/>
			<stop  offset="1" style="stop-color:#EE295F"/>
		</linearGradient>
		<path fill="url(#SVGID_1_)" d="M16.428,14.041c1.109,0.789,2.454,2.101,1.858,3.604c-0.376,0.951-1.098,1.895-2.028,2.825
			c-1.495,1.495-1.973,2.844-2.06,3.855c0.468-0.55,1.115-0.974,1.675-1.371c0.837-0.593,1.575-1.307,2.334-1.994
			c1.514-1.37,3.097-3.299,1.906-5.397c-1.002-1.765-3.365-4.869-5.755-4.184c-1.625,0.466-3.417,2.038-4.576,3.197
			c-0.142,0.142-0.272,0.292-0.392,0.447c-1.026,1.025-2.412,2.704-3.42,4.622c1.509-1.257,3.279-2.303,4.877-3.373
			C12.393,15.237,14.431,12.622,16.428,14.041z"/>
		<linearGradient id="SVGID_2_" gradientUnits="userSpaceOnUse" x1="1.4092" y1="29.3452" x2="20.8911" y2="29.3452">
			<stop  offset="0" style="stop-color:#1C75BC"/>
			<stop  offset="1" style="stop-color:#00AEEF"/>
		</linearGradient>
		<path opacity="0.59" fill="url(#SVGID_2_)" d="M20.826,32.446c-0.018-0.068-0.039-0.135-0.062-0.199
			c-0.516-1.438-2.31-2.12-3.326-3.132c-0.922-0.919-2.199-1.855-2.934-2.934c-0.004-0.005-0.404-0.716-0.307-1.856
			c-0.234,0.275-0.427,0.58-0.535,0.932c-0.004,0.015-0.008,0.029-0.013,0.043c-0.464,1.629,1.329,2.941,2.318,3.931
			c3.675,3.676-1.427,8.345-4.639,5.134c-1.557-1.557-6.388-6.105-6.657-9.623c-0.13-1.708,0.451-3.486,1.298-5.097
			c-0.34,0.284-0.672,0.574-0.98,0.882c-1.723,1.723-4.556,3.544-3.247,6.367c1.026,2.212,3.285,3.482,5.109,4.952
			c1.934,1.559,3.57,3.372,5.262,5.176c0.973,1.036,2.262,2.367,3.827,1.94C17.947,38.415,21.409,34.674,20.826,32.446z"/>
		<linearGradient id="SVGID_3_" gradientUnits="userSpaceOnUse" x1="4.6543" y1="24.5332" x2="20.5323" y2="24.5332">
			<stop  offset="0" style="stop-color:#AE2160"/>
			<stop  offset="1" style="stop-color:#EE295F"/>
		</linearGradient>
		<path fill="url(#SVGID_3_)" d="M4.672,24.742c0.269,3.518,5.101,8.066,6.657,9.623c3.211,3.211,8.314-1.458,4.639-5.134
			c-0.989-0.989-2.782-2.302-2.318-3.931c0.004-0.014,0.009-0.028,0.013-0.043c0.108-0.353,0.301-0.657,0.535-0.932
			c0.086-1.011,0.564-2.36,2.06-3.855c0.93-0.93,1.651-1.874,2.028-2.825c0.596-1.503-0.749-2.816-1.858-3.604
			c-1.997-1.419-4.035,1.196-5.58,2.231c-1.598,1.07-3.368,2.116-4.877,3.373C5.124,21.255,4.542,23.034,4.672,24.742z"/>
		<path fill="#773064" d="M4.672,24.742c0.269,3.518,5.101,8.066,6.657,9.623c3.211,3.211,8.314-1.458,4.639-5.134
			c-0.989-0.989-2.782-2.302-2.318-3.931c0.004-0.014,0.009-0.028,0.013-0.043c0.108-0.353,0.301-0.657,0.535-0.932
			c0.086-1.011,0.564-2.36,2.06-3.855c0.93-0.93,1.651-1.874,2.028-2.825c0.596-1.503-0.749-2.816-1.858-3.604
			c-1.997-1.419-4.035,1.196-5.58,2.231c-1.598,1.07-3.368,2.116-4.877,3.373C5.124,21.255,4.542,23.034,4.672,24.742z"/>
	</g>
	<g>
		<g>
			<path fill="#414042" d="M34.248,16.395c0,0.133-0.114,0.248-0.247,0.248c-0.153,0-0.267-0.115-0.267-0.248
				c0-0.553-0.21-1.067-0.591-1.448l-0.19-0.152c-0.343-0.286-0.782-0.438-1.239-0.438H27.35c-0.457,0-0.896,0.152-1.257,0.438
				l-0.172,0.152c-0.381,0.381-0.591,0.896-0.591,1.448c0,4.136,9.014,1.029,9.014,5.564c0,1.41-1.163,2.554-2.535,2.554h-4.592
				c-0.667,0-1.315-0.267-1.791-0.743l-0.057-0.077c-0.419-0.438-0.667-1.029-0.687-1.639v-0.095c0-0.133,0.114-0.248,0.248-0.248
				c0.152,0,0.267,0.115,0.267,0.248c0,0.515,0.19,0.991,0.534,1.372l0.058,0.076c0.38,0.381,0.896,0.59,1.429,0.59h4.592
				c1.105,0,2.02-0.915,2.02-2.039c0-2.42-2.916-2.172-4.402-2.535c-2.591-0.324-4.612-0.915-4.612-3.03
				c0-0.686,0.268-1.315,0.744-1.81l0.057-0.058c0.477-0.438,1.086-0.686,1.734-0.686h4.364c0.648,0,1.258,0.248,1.734,0.686
				l0.058,0.058c0.476,0.476,0.743,1.124,0.743,1.791V16.395z"/>
			<path fill="#414042" d="M31.809,24.725h-4.592c-0.722,0-1.43-0.294-1.941-0.805l-0.02-0.023l-0.049-0.066
				c-0.448-0.473-0.715-1.116-0.736-1.769v-0.102c0-0.25,0.211-0.46,0.46-0.46c0.264,0,0.479,0.206,0.479,0.46
				c0,0.457,0.166,0.881,0.479,1.23l0.012,0.015l0.048,0.064c0.34,0.334,0.789,0.518,1.269,0.518h4.592
				c0.997,0,1.808-0.82,1.808-1.827c0-1.732-1.672-1.954-3.147-2.148c-0.393-0.052-0.764-0.101-1.081-0.177
				c-2.318-0.29-4.786-0.806-4.786-3.239c0-0.735,0.277-1.411,0.803-1.957l0.06-0.061c0.526-0.484,1.193-0.749,1.884-0.749h4.364
				c0.691,0,1.357,0.264,1.878,0.742l0.063,0.064c0.512,0.511,0.805,1.219,0.805,1.941v0.019c0,0.25-0.21,0.46-0.459,0.46
				c-0.265,0-0.479-0.207-0.479-0.46c0-0.493-0.185-0.95-0.521-1.29L32.82,14.96c-0.304-0.253-0.696-0.392-1.106-0.392H27.35
				c-0.409,0-0.797,0.134-1.122,0.389l-0.162,0.144c-0.338,0.341-0.524,0.8-0.524,1.294c0,1.834,2.024,2.109,4.167,2.401
				c2.272,0.309,4.847,0.658,4.847,3.164C34.556,23.484,33.324,24.725,31.809,24.725z M25.586,23.63
				c0.431,0.426,1.025,0.67,1.63,0.67h4.592c1.259,0,2.322-1.072,2.322-2.341c0-2.135-2.175-2.43-4.479-2.743
				c-2.229-0.303-4.534-0.616-4.534-2.821c0-0.609,0.232-1.177,0.653-1.599l0.009-0.008l0.181-0.161
				c0.401-0.316,0.882-0.483,1.39-0.483h4.364c0.509,0,0.997,0.173,1.375,0.487l0.205,0.165c0.422,0.421,0.653,0.989,0.653,1.599
				c0,0.015,0.019,0.036,0.055,0.036c0.016,0,0.035-0.02,0.035-0.036v-0.019c0-0.61-0.248-1.208-0.681-1.641l-0.058-0.057
				c-0.436-0.4-1-0.624-1.584-0.624H27.35c-0.583,0-1.148,0.224-1.59,0.63l-0.051,0.051c-0.444,0.462-0.681,1.038-0.681,1.66
				c0,1.881,1.769,2.487,4.426,2.819l0.024,0.004c0.297,0.072,0.662,0.121,1.048,0.171c1.484,0.196,3.516,0.465,3.516,2.569
				c0,1.241-1.001,2.251-2.232,2.251h-4.592c-0.597,0-1.159-0.231-1.58-0.652l-0.02-0.023l-0.052-0.069
				c-0.379-0.426-0.581-0.947-0.581-1.507c0-0.015-0.02-0.036-0.055-0.036c-0.017,0-0.036,0.02-0.036,0.036v0.095
				c0.017,0.547,0.246,1.094,0.627,1.492l0.017,0.02L25.586,23.63z"/>
		</g>
		<g>
			<path fill="#414042" d="M43.7,24.265c0,0.133-0.115,0.248-0.267,0.248c-0.133,0-0.248-0.115-0.248-0.248v-4.592
				c0-1.487-1.258-2.744-2.744-2.744h-0.667c-1.486,0-2.706,1.219-2.744,2.687v4.649c0,0.133-0.114,0.248-0.267,0.248
				c-0.133,0-0.248-0.115-0.248-0.248V14.108c0-0.133,0.115-0.248,0.248-0.248c0.153,0,0.267,0.115,0.267,0.248v3.716l0.438-0.458
				c0.591-0.629,1.429-0.934,2.306-0.953h0.667c1.753,0,3.22,1.467,3.258,3.221V24.265z"/>
			<path fill="#414042" d="M43.433,24.725c-0.249,0-0.459-0.211-0.459-0.46v-4.592c0-1.373-1.16-2.532-2.532-2.532h-0.667
				c-1.361,0-2.496,1.113-2.532,2.48v4.644c0,0.254-0.214,0.46-0.479,0.46c-0.25,0-0.459-0.211-0.459-0.46V14.108
				c0-0.25,0.21-0.46,0.459-0.46c0.265,0,0.479,0.206,0.479,0.46v3.188l0.073-0.076c0.596-0.634,1.468-0.996,2.454-1.018l0.672,0
				c1.872,0,3.429,1.538,3.471,3.429v4.635C43.913,24.519,43.697,24.725,43.433,24.725z M39.774,16.716h0.667
				c1.603,0,2.956,1.354,2.956,2.957v4.592c0,0.016,0.02,0.036,0.036,0.036c0.036,0,0.054-0.021,0.054-0.036v-4.63
				c-0.035-1.629-1.43-3.009-3.045-3.009h-0.667c-0.867,0.02-1.632,0.334-2.151,0.886l-0.805,0.84v-4.244
				c0-0.015-0.019-0.036-0.055-0.036c-0.016,0-0.035,0.02-0.035,0.036v10.157c0,0.016,0.019,0.036,0.035,0.036
				c0.036,0,0.055-0.021,0.055-0.036v-4.649C36.86,18.015,38.186,16.716,39.774,16.716z"/>
		</g>
		<g>
			<path fill="#414042" d="M46.616,22.34c0.438,1.01,1.467,1.658,2.535,1.658h3.545c0.133,0,0.247,0.115,0.247,0.248
				c0,0.152-0.114,0.267-0.247,0.267H49.15c-1.925,0-3.298-1.62-3.298-3.45v-1.314c0-1.791,1.506-3.297,3.298-3.297h1.467
				c1.792,0,3.296,1.506,3.296,3.297v1.334c0,0.267-0.209,0.476-0.457,0.476h-7.184L46.616,22.34z M53.399,19.749
				c0-1.505-1.277-2.783-2.782-2.783H49.15c-1.487,0-2.782,1.258-2.782,2.783v1.295h7.031V19.749z"/>
			<path fill="#414042" d="M52.695,24.725H49.15c-1.968,0-3.509-1.608-3.509-3.662v-1.314c0-1.902,1.607-3.509,3.509-3.509h1.467
				c1.902,0,3.509,1.606,3.509,3.509v1.334c0,0.379-0.301,0.688-0.67,0.688h-6.859l0.212,0.484c0.397,0.916,1.338,1.531,2.34,1.531
				h3.545c0.248,0,0.46,0.211,0.46,0.46C53.155,24.51,52.948,24.725,52.695,24.725z M46.139,21.782
				c0.303,1.458,1.518,2.519,3.011,2.519h3.545c0.014,0,0.034-0.019,0.034-0.055c0-0.016-0.019-0.036-0.034-0.036H49.15
				c-1.169,0-2.266-0.717-2.729-1.786L46.139,21.782z M46.077,21.347h7.38c0.135,0,0.245-0.119,0.245-0.264v-1.334
				c0-1.672-1.412-3.085-3.084-3.085H49.15c-1.672,0-3.085,1.413-3.085,3.085v1.314C46.065,21.159,46.07,21.254,46.077,21.347z
				 M53.612,21.257h-7.456v-1.508c0-1.624,1.37-2.995,2.994-2.995h1.467c1.623,0,2.995,1.371,2.995,2.995V21.257z M46.581,20.833
				h6.607v-1.083c0-1.393-1.177-2.57-2.57-2.57H49.15c-1.393,0-2.57,1.177-2.57,2.57V20.833z"/>
		</g>
		<g>
			<path fill="#414042" d="M55.877,13.975c0-0.152,0.114-0.267,0.248-0.267c0.152,0,0.267,0.115,0.267,0.267v3.85l0.438-0.458
				c0.59-0.629,1.429-0.934,2.305-0.953h1.43c1.791,0,3.259,1.486,3.259,3.259v1.582c0,1.792-1.468,3.259-3.259,3.259h-1.43
				c-1.79,0-3.258-1.467-3.258-3.259V13.975z M56.392,21.254c0,1.505,1.238,2.744,2.743,2.744h1.43c1.506,0,2.744-1.238,2.744-2.744
				v-1.582c0-1.506-1.238-2.744-2.744-2.744h-1.43c-1.467,0-2.743,1.219-2.743,2.687v0.533V21.254z"/>
			<path fill="#414042" d="M60.564,24.725h-1.43c-1.913,0-3.471-1.557-3.471-3.471v-7.279c0-0.265,0.207-0.479,0.461-0.479
				c0.269,0,0.479,0.21,0.479,0.479v3.321l0.073-0.076c0.596-0.634,1.468-0.996,2.454-1.018l1.434,0
				c1.914,0,3.471,1.557,3.471,3.471v1.582C64.035,23.168,62.479,24.725,60.564,24.725z M56.125,13.92
				c-0.015,0-0.036,0.019-0.036,0.055v7.279c0,1.68,1.367,3.046,3.046,3.046h1.43c1.681,0,3.047-1.367,3.047-3.046v-1.582
				c0-1.652-1.396-3.047-3.047-3.047h-1.43c-0.866,0.02-1.631,0.334-2.15,0.886l-0.805,0.84v-4.377
				C56.18,13.94,56.16,13.92,56.125,13.92z M60.564,24.21h-1.43c-1.629,0-2.955-1.326-2.955-2.956v-1.639
				c0-1.571,1.354-2.899,2.955-2.899h1.43c1.63,0,2.956,1.327,2.956,2.957v1.582C63.521,22.884,62.194,24.21,60.564,24.21z
				 M59.135,17.141c-1.372,0-2.531,1.133-2.531,2.475v1.639c0,1.396,1.136,2.532,2.531,2.532h1.43c1.396,0,2.532-1.136,2.532-2.532
				v-1.582c0-1.396-1.136-2.532-2.532-2.532H59.135z"/>
		</g>
		<g>
			<path fill="#414042" d="M69.731,16.452c1.771,0,3.314,1.467,3.314,3.297v1.467c0,1.83-1.543,3.297-3.314,3.297h-2.116
				c-1.429,0-2.572-1.144-2.572-2.573c0-1.41,1.144-2.554,2.572-2.554h4.897l-0.076-0.305c-0.305-1.219-1.448-2.115-2.705-2.115
				h-3.373c-0.134,0-0.248-0.114-0.248-0.247c0-0.153,0.114-0.267,0.248-0.267h0.247H69.731z M69.731,23.998
				c1.543,0,2.781-1.295,2.781-2.782v-1.315h-4.897c-1.143,0-2.058,0.915-2.058,2.039c0,1.143,0.915,2.058,2.058,2.058h1.144H69.731
				z"/>
			<path fill="#414042" d="M69.731,24.725h-2.116c-1.535,0-2.784-1.249-2.784-2.785c0-1.525,1.249-2.766,2.784-2.766h4.626
				l-0.011-0.041c-0.283-1.132-1.334-1.955-2.499-1.955h-3.373c-0.25,0-0.461-0.21-0.461-0.459c0-0.264,0.207-0.479,0.461-0.479
				h3.373c1.911,0,3.527,1.606,3.527,3.509v1.467C73.259,23.118,71.643,24.725,69.731,24.725z M67.615,19.599
				c-1.301,0-2.36,1.05-2.36,2.341c0,1.302,1.06,2.36,2.36,2.36h2.116c1.682,0,3.103-1.413,3.103-3.084v-1.467
				c0-1.672-1.421-3.085-3.103-3.085h-3.373c-0.016,0-0.036,0.019-0.036,0.055c0,0.016,0.02,0.035,0.036,0.035h3.373
				c1.357,0,2.581,0.958,2.911,2.276l0.142,0.569H67.615z M69.731,24.21h-2.116c-1.251,0-2.271-1.019-2.271-2.27
				c0-1.242,1.02-2.251,2.271-2.251h5.109v1.527C72.725,22.839,71.354,24.21,69.731,24.21z M67.615,20.113
				c-1.018,0-1.846,0.82-1.846,1.827c0,1.018,0.828,1.846,1.846,1.846h2.116c1.393,0,2.569-1.177,2.569-2.57v-1.103H67.615z"/>
		</g>
		<g>
			<path fill="#414042" d="M29.58,36.371c0,0.133-0.114,0.247-0.248,0.247c-0.153,0-0.267-0.114-0.267-0.247V26.48h-4.134
				c-0.134,0-0.249-0.113-0.249-0.267c0-0.133,0.114-0.247,0.249-0.247h8.784c0.133,0,0.248,0.114,0.248,0.247
				c0,0.153-0.115,0.267-0.248,0.267H29.58V36.371z"/>
			<path fill="#414042" d="M29.332,36.831c-0.264,0-0.479-0.206-0.479-0.46v-9.678h-3.923c-0.254,0-0.46-0.215-0.46-0.479
				c0-0.249,0.211-0.46,0.46-0.46h8.784c0.25,0,0.46,0.211,0.46,0.46c0,0.265-0.207,0.479-0.46,0.479h-3.923v9.678
				C29.792,36.62,29.582,36.831,29.332,36.831z M24.931,26.178c-0.017,0-0.036,0.02-0.036,0.035c0,0.036,0.021,0.055,0.036,0.055
				h4.347v10.103c0,0.015,0.019,0.035,0.055,0.035c0.016,0,0.036-0.019,0.036-0.035V26.268h4.347c0.015,0,0.036-0.019,0.036-0.055
				c0-0.016-0.02-0.035-0.036-0.035H24.931z"/>
		</g>
		<g>
			<path fill="#414042" d="M34.573,34.446c0.438,1.01,1.467,1.658,2.535,1.658h3.544c0.134,0,0.248,0.114,0.248,0.248
				c0,0.151-0.114,0.266-0.248,0.266h-3.544c-1.925,0-3.297-1.619-3.297-3.448v-1.314c0-1.792,1.505-3.298,3.297-3.298h1.467
				c1.791,0,3.297,1.506,3.297,3.298v1.333c0,0.267-0.21,0.477-0.458,0.477H34.23L34.573,34.446z M41.356,31.855
				c0-1.506-1.277-2.783-2.782-2.783h-1.467c-1.486,0-2.782,1.259-2.782,2.783v1.296h7.031V31.855z"/>
			<path fill="#414042" d="M40.651,36.831h-3.544c-1.968,0-3.509-1.608-3.509-3.661v-1.314c0-1.902,1.607-3.509,3.509-3.509h1.467
				c1.902,0,3.508,1.606,3.508,3.509v1.333c0,0.38-0.299,0.688-0.669,0.688h-6.859l0.212,0.484c0.398,0.916,1.338,1.53,2.34,1.53
				h3.544c0.249,0,0.459,0.211,0.459,0.461C41.111,36.616,40.905,36.831,40.651,36.831z M34.096,33.887
				c0.304,1.459,1.518,2.519,3.012,2.519h3.544c0.015,0,0.036-0.019,0.036-0.054c0-0.017-0.02-0.036-0.036-0.036h-3.544
				c-1.169,0-2.266-0.718-2.729-1.785L34.096,33.887z M34.034,33.453h7.379c0.135,0,0.245-0.118,0.245-0.265v-1.333
				c0-1.672-1.413-3.085-3.084-3.085h-1.467c-1.672,0-3.085,1.413-3.085,3.085v1.314C34.022,33.265,34.026,33.359,34.034,33.453z
				 M41.568,33.362h-7.456v-1.507c0-1.624,1.372-2.995,2.995-2.995h1.467c1.623,0,2.994,1.371,2.994,2.995V33.362z M34.538,32.938
				h6.606v-1.083c0-1.394-1.177-2.57-2.57-2.57h-1.467c-1.394,0-2.57,1.177-2.57,2.57V32.938z"/>
		</g>
		<g>
			<path fill="#414042" d="M50.217,36.104c0.134,0,0.249,0.114,0.249,0.248c0,0.151-0.115,0.266-0.249,0.266H47.13
				c-1.791,0-3.296-1.505-3.296-3.296v-1.467c0-1.792,1.505-3.298,3.296-3.298h3.087c0.134,0,0.249,0.115,0.249,0.267
				c0,0.134-0.115,0.248-0.249,0.248H47.13c-1.467,0-2.782,1.239-2.782,2.783v1.467c0,1.506,1.277,2.782,2.782,2.782h2.839H50.217z"
				/>
			<path fill="#414042" d="M50.217,36.831H47.13c-1.902,0-3.509-1.607-3.509-3.509v-1.467c0-1.902,1.607-3.509,3.509-3.509h3.087
				c0.254,0,0.46,0.214,0.46,0.478c0,0.25-0.211,0.461-0.46,0.461H47.13c-1.393,0-2.57,1.177-2.57,2.57v1.467
				c0,1.393,1.177,2.569,2.57,2.569h3.087c0.25,0,0.46,0.211,0.46,0.461C50.678,36.616,50.471,36.831,50.217,36.831z M47.13,28.77
				c-1.672,0-3.084,1.413-3.084,3.085v1.467c0,1.672,1.412,3.084,3.084,3.084h3.087c0.015,0,0.036-0.019,0.036-0.054
				c0-0.017-0.019-0.036-0.036-0.036H47.13c-1.623,0-2.994-1.371-2.994-2.994v-1.467c0-1.624,1.371-2.995,2.994-2.995h3.087
				c0.017,0,0.036-0.019,0.036-0.036c0-0.034-0.021-0.054-0.036-0.054H47.13z"/>
		</g>
		<g>
			<path fill="#414042" d="M59.574,36.371c0,0.133-0.114,0.247-0.268,0.247c-0.133,0-0.248-0.114-0.248-0.247v-4.593
				c0-1.486-1.257-2.744-2.743-2.744h-0.667c-1.486,0-2.706,1.22-2.744,2.688v4.649c0,0.133-0.114,0.247-0.268,0.247
				c-0.133,0-0.247-0.114-0.247-0.247V26.213c0-0.133,0.114-0.247,0.247-0.247c0.153,0,0.268,0.114,0.268,0.247v3.717l0.438-0.458
				c0.592-0.629,1.43-0.934,2.307-0.952h0.667c1.754,0,3.221,1.467,3.259,3.22V36.371z"/>
			<path fill="#414042" d="M59.307,36.831c-0.249,0-0.46-0.211-0.46-0.46v-4.593c0-1.372-1.159-2.531-2.531-2.531h-0.667
				c-1.361,0-2.497,1.112-2.532,2.479v4.645c0,0.254-0.215,0.46-0.479,0.46c-0.248,0-0.46-0.211-0.46-0.46V26.213
				c0-0.249,0.212-0.46,0.46-0.46c0.265,0,0.479,0.206,0.479,0.46v3.188l0.073-0.075c0.596-0.635,1.468-0.997,2.454-1.019h0.672
				c1.872,0,3.43,1.538,3.471,3.429v4.635C59.786,36.625,59.571,36.831,59.307,36.831z M55.648,28.822h0.667
				c1.603,0,2.956,1.354,2.956,2.956v4.593c0,0.017,0.02,0.035,0.035,0.035c0.036,0,0.055-0.021,0.055-0.035V31.74
				c-0.035-1.629-1.431-3.008-3.046-3.008h-0.667c-0.867,0.019-1.633,0.334-2.151,0.886l-0.806,0.84v-4.244
				c0-0.015-0.019-0.035-0.055-0.035c-0.016,0-0.035,0.02-0.035,0.035v10.157c0,0.017,0.02,0.035,0.035,0.035
				c0.036,0,0.055-0.021,0.055-0.035v-4.649C52.733,30.12,54.06,28.822,55.648,28.822z"/>
		</g>
	</g>
</g>
</svg>
