<?xml version="1.0" encoding="utf-8"?>
<!-- Generator: Adobe Illustrator 15.0.0, SVG Export Plug-In . SVG Version: 6.00 Build 0)  -->
<!DOCTYPE svg PUBLIC "-//W3C//DTD SVG 1.1//EN" "http://www.w3.org/Graphics/SVG/1.1/DTD/svg11.dtd">
<svg version="1.1" id="Layer_1" xmlns="http://www.w3.org/2000/svg" xmlns:xlink="http://www.w3.org/1999/xlink" x="0px" y="0px"
	 width="143.255px" height="127px" viewBox="0 0 143.255 127" enable-background="new 0 0 143.255 127" xml:space="preserve">
<g>
	<linearGradient id="SVGID_1_" gradientUnits="userSpaceOnUse" x1="548.1211" y1="63.5" x2="718.3906" y2="63.5">
		<stop  offset="0" style="stop-color:#AE2160"/>
		<stop  offset="1" style="stop-color:#EE295F"/>
	</linearGradient>
	<path fill="url(#SVGID_1_)" d="M690.904,120.491c-8.247-15.915,3.604-20.312,13.266-28.275
		C740.504,60.115,682.471,34.657,692.662,0H567.528c-0.311,0.456-0.615,0.911-0.951,1.373c-6.398,9.66-16.307,26.721-3.422,36.643
		c10.128,8.117,40.563,13.807,33.76,32.852c-1.979,5.537-8.155,11.159-11.457,16.07c-6.68,9.936-9.352,19.778-0.916,29.625
		c3.39,3.957,7.484,7.351,11.842,10.438h99.431C693.825,125.338,692.146,123.195,690.904,120.491z"/>
	<linearGradient id="SVGID_2_" gradientUnits="userSpaceOnUse" x1="-143.2549" y1="63.5" x2="35.9385" y2="63.5">
		<stop  offset="0" style="stop-color:#1C75BC"/>
		<stop  offset="1" style="stop-color:#00AEEF"/>
	</linearGradient>
	<path opacity="0.59" fill="url(#SVGID_2_)" d="M8.815,112.096c-5.82-7.561-10.502-16.18-12.561-25.553
		c-1.6-7.277-0.865-13.469,3.648-19.5c3.6-4.811,12.158-11.35,12.77-17.758c0.77-8.041-8.889-14.492-13.59-19.844
		C-5.977,23.679,2.7,17.582,14.672,11.39C6.175,7.491-3.883,3.612-13.61,0H-140.38c-3.625,12.354-3.609,25.574,3.125,31.922
		c11,10.023,31,4.455,37,22.277c6,16.707-13,35.643-22,46.781c-4,4.455-20,17.822-21,25.619c0,0.133,0.011,0.267,0.016,0.4h154.25
		c1.661-1.977,3.285-4,4.906-6.061C12.535,116.811,9.436,112.901,8.815,112.096z"/>
	<g>
		<linearGradient id="SVGID_3_" gradientUnits="userSpaceOnUse" x1="14.6719" y1="63.5" x2="167.5361" y2="63.5">
			<stop  offset="0" style="stop-color:#AE2160"/>
			<stop  offset="1" style="stop-color:#EE295F"/>
		</linearGradient>
		<path fill="url(#SVGID_3_)" d="M151.293,115.604c-3.292-2.438-5.637-5.182-6.132-8.496c-1.625-10.877,0.555-18.904,7.074-27.59
			c5.438-7.244,12.262-13.891,14.508-22.969c4.348-17.566-10.064-24.941-21.707-33.951c-4.898-3.792-6.27-8.279-6.192-13.07
			c-4.377-1.87-8.722-3.547-12.816-5.096c-3.461-1.308-7.865-2.761-12.647-4.432H37.9c-7.392,3.796-15.921,7.611-23.229,11.39
			c14.17,6.502,23.985,13.06,20.593,18.528c-4.922,7.934-8.076,9.246-13.666,16.424c-7.682,9.859-7.217,26.129,2.127,34.174
			c6.502,5.598,16.715,9.793,9.973,20.604c-4.125,6.611-10.977,11.121-15.74,17.215c-0.683,0.873-1.362,1.742-2.042,2.605
			c1.71,2.089,3.492,4.232,5.063,6.061h124.643c1.518-2.827,2.85-5.753,4.152-8.434C150.259,117.568,150.77,116.583,151.293,115.604
			z"/>
	</g>
	<g>
		<path fill="#79305F" d="M-0.917,29.441c4.701,5.352,14.359,11.803,13.59,19.844c-0.611,6.408-9.17,12.947-12.77,17.758
			c-4.514,6.031-5.248,12.223-3.648,19.5c2.059,9.373,6.74,17.992,12.561,25.553c0.62,0.806,3.719,4.715,7.101,8.844
			c0.679-0.863,1.358-1.732,2.042-2.605c4.764-6.094,11.615-10.604,15.74-17.215c6.742-10.811-3.471-15.006-9.973-20.604
			c-9.344-8.045-9.809-24.314-2.127-34.174c5.59-7.178,8.744-8.49,13.666-16.424c3.393-5.468-6.423-12.025-20.593-18.528
			C2.7,17.582-5.977,23.679-0.917,29.441z"/>
	</g>
	<linearGradient id="SVGID_4_" gradientUnits="userSpaceOnUse" x1="109.7314" y1="63.5" x2="359.3311" y2="63.5">
		<stop  offset="0" style="stop-color:#1C75BC"/>
		<stop  offset="1" style="stop-color:#00AEEF"/>
	</linearGradient>
	<path opacity="0.59" fill="url(#SVGID_4_)" d="M285.011,108.404C277.507,89.229,307.042,74.793,302.245,58
		c-2.895-8.463-10.113-22.902-14-31.5c-2.887-5.917-1.959-12.02,0.532-18.195C285.055,5.952,281.854,2.912,278.59,0H140.25
		c-0.706,3.233-1.354,6.442-1.405,9.527c13.934,5.951,28.206,13.862,35.805,25.883c4.168,6.594,6.33,14.422,5.326,23.842
		c-2.358,22.143-18.716,37.701-28.682,56.352c5.769,4.273,14.455,7.606,21.314,11.396h114.987c1.844-1.869,4.317-3.766,6.933-6.334
		C290.632,117.615,287.229,113.88,285.011,108.404z"/>
	<g>
		<path fill="#973361" d="M145.036,22.598c11.643,9.01,26.055,16.385,21.707,33.951c-2.246,9.078-9.07,15.725-14.508,22.969
			c-6.52,8.686-8.699,16.713-7.074,27.59c0.495,3.314,2.84,6.058,6.132,8.496c9.966-18.65,26.324-34.209,28.682-56.352
			c1.004-9.42-1.158-17.248-5.326-23.842c-7.599-12.021-21.871-19.932-35.805-25.883C138.766,14.318,140.138,18.806,145.036,22.598z
			"/>
	</g>
	<g>
		<linearGradient id="SVGID_5_" gradientUnits="userSpaceOnUse" x1="288.7773" y1="63.5" x2="444.5352" y2="63.5">
			<stop  offset="0" style="stop-color:#AE2160"/>
			<stop  offset="1" style="stop-color:#EE295F"/>
		</linearGradient>
		<path fill="url(#SVGID_5_)" d="M437.687,97.209c2.393-8.877,11.059-28.754,4.354-36.852c-4.635-6.043-15.381,3.961-23.035,0.811
			c-8.668-4.252-5.902-19.709-5.24-27.111c0.804-7.19,1.819-13.811,1.082-19.797c-1.507-1.293-2.991-2.598-4.434-3.923
			C406.461,6.816,399.824,3.328,391.744,0h-98.897c-1.539,2.777-2.958,5.548-4.069,8.305c0.29,0.183,0.573,0.375,0.87,0.549
			c8.506,5,20.365,6.428,26.506,14.844c9.273,12.709-15.752,50.5-11.15,64.303c7,21,19.297-0.383-7.021,28.881
			c-1.151,1.426-2.315,2.668-3.454,3.785c3.016,2.36,6.324,4.312,9.613,6.334H437.47
			C434.294,117.584,435.536,105.187,437.687,97.209z"/>
	</g>
	<g>
		<path fill="#7B2F5F" d="M288.245,26.5c3.887,8.598,11.105,23.037,14,31.5c4.797,16.793-24.738,31.229-17.234,50.404
			c2.218,5.476,5.621,9.211,9.517,12.262c1.139-1.117,2.303-2.359,3.454-3.785C324.3,87.617,312.003,109,305.003,88
			c-4.602-13.803,20.424-51.594,11.15-64.303c-6.141-8.416-18-9.844-26.506-14.844c-0.297-0.174-0.58-0.366-0.87-0.549
			C286.286,14.48,285.358,20.583,288.245,26.5z"/>
	</g>
	
		<linearGradient id="SVGID_6_" gradientUnits="userSpaceOnUse" x1="166.542" y1="799.4697" x2="382.1401" y2="799.4697" gradientTransform="matrix(0.98 -0.1992 0.1992 0.98 43.0725 -662.988)">
		<stop  offset="0" style="stop-color:#00AEEF"/>
		<stop  offset="1" style="stop-color:#1C75BC"/>
	</linearGradient>
	<path opacity="0.59" fill="url(#SVGID_6_)" d="M548.719,117.386c-5.117-16.532,29.661-25.827,35.648-38.116
		c3.777-7.753-3.965-12.812-9.85-16.063c-7.791-4.307-14.978-6.852-20.271-14.446c-7.797-11.186-7.74-24.337-2.146-36.646
		c1.815-3.935,4.355-7.973,7.139-12.113h-151.75c4.698,4.23,6.71,8.999,7.357,14.259c12.403,10.637,26.719,20.269,38.1,30.641
		c6.574,5.994,10.488,12.85,9.412,21.951c-1.492,12.627-11.891,21.258-14.902,32.805c-2.041,7.83-1.363,15.227,1.918,22.578
		c0.718,1.609,1.638,3.188,2.617,4.766h105.946C554.021,124.46,550.001,121.522,548.719,117.386z"/>
	<path fill="#7D2B5F" d="M584.542,116.562c-8.436-9.847-5.764-19.689,0.916-29.625c3.302-4.911,9.478-10.533,11.457-16.07
		c6.804-19.045-23.632-24.734-33.76-32.852c-12.885-9.922-2.977-26.982,3.422-36.643c0.336-0.462,0.641-0.917,0.951-1.373h-8.289
		c-2.783,4.141-5.323,8.179-7.139,12.113c-5.595,12.31-5.651,25.461,2.146,36.646c5.294,7.595,12.48,10.14,20.271,14.446
		c5.885,3.251,13.627,8.311,9.85,16.063c-5.987,12.289-40.766,21.584-35.648,38.116c1.282,4.137,5.303,7.074,9.219,9.614h38.446
		C592.026,123.913,587.932,120.52,584.542,116.562z"/>
	<g>
		<path fill="#8C3462" d="M447.456,99.656c3.012-11.547,13.41-20.178,14.902-32.805c1.076-9.102-2.838-15.957-9.412-21.951
			c-11.381-10.372-25.696-20.004-38.1-30.641c0.737,5.986-0.278,12.607-1.082,19.797c-0.662,7.402-3.428,22.859,5.24,27.111
			c7.654,3.15,18.4-6.854,23.035-0.811c6.705,8.098-1.961,27.975-4.354,36.852c-2.15,7.978-3.393,20.375-0.217,29.791h14.521
			c-0.979-1.577-1.899-3.156-2.617-4.766C446.093,114.883,445.415,107.486,447.456,99.656z"/>
	</g>
</g>
</svg>
