<?xml version="1.0" encoding="utf-8"?>
<!-- Generator: Adobe Illustrator 15.0.0, SVG Export Plug-In . SVG Version: 6.00 Build 0)  -->
<!DOCTYPE svg PUBLIC "-//W3C//DTD SVG 1.1//EN" "http://www.w3.org/Graphics/SVG/1.1/DTD/svg11.dtd">
<svg version="1.1" id="Layer_1" xmlns="http://www.w3.org/2000/svg" xmlns:xlink="http://www.w3.org/1999/xlink" x="0px" y="0px"
	 width="411.111px" height="121.211px" viewBox="0 0 411.111 121.211" enable-background="new 0 0 411.111 121.211"
	 xml:space="preserve">
<g>
	<g>
		<g enable-background="new    ">
			<path fill="#FFFFFF" d="M95.67,61.364c-0.028,0.167-0.167,0.279-0.335,0.279c-0.168,0-0.335-0.14-0.335-0.308
				c0-0.028,0-0.028,0-0.056l1.984-14.193c0.056-0.643,0.643-1.033,1.229-1.033c0.559,0,0.95,0.335,1.118,0.782l5.168,13.802
				c0.084,0.224,0.28,0.335,0.531,0.335c0.223,0,0.419-0.111,0.502-0.335l5.169-13.802c0.167-0.447,0.559-0.782,1.118-0.782
				c0.586,0,1.173,0.391,1.229,1.033l1.984,14.193c0,0.027,0,0.027,0,0.056c0,0.168-0.167,0.308-0.335,0.308
				c-0.167,0-0.307-0.112-0.335-0.279l-1.956-14.193c-0.056-0.252-0.223-0.392-0.503-0.475c-0.223,0-0.475,0.083-0.586,0.363
				l-5.169,13.802c-0.167,0.475-0.615,0.782-1.117,0.782c-0.559,0-0.978-0.308-1.146-0.782l-5.169-13.802
				c-0.112-0.28-0.363-0.363-0.587-0.363c-0.279,0.083-0.447,0.223-0.502,0.475L95.67,61.364z"/>
		</g>
		<g enable-background="new    ">
			<path fill="#FFFFFF" d="M124.386,49.796c2.626,0,4.833,2.207,4.833,4.834v2.151c0,2.626-2.208,4.833-4.833,4.833h-2.151
				c-2.626,0-4.833-2.207-4.833-4.833V54.63c0-2.627,2.207-4.834,4.833-4.834H124.386z M122.235,50.551
				c-2.151,0-4.079,1.815-4.079,4.079v2.151c0,2.179,1.872,4.079,4.079,4.079h2.151c2.207,0,4.079-1.872,4.079-4.079V54.63
				c0-2.235-1.9-4.079-4.079-4.079H122.235z"/>
		</g>
		<g enable-background="new    ">
			<path fill="#FFFFFF" d="M132.094,46.165c0-0.224,0.167-0.392,0.363-0.392c0.224,0,0.391,0.168,0.391,0.392v5.644l0.643-0.671
				c0.866-0.922,2.095-1.368,3.38-1.396h2.096c2.626,0,4.777,2.18,4.777,4.777v2.319c0,2.626-2.151,4.777-4.777,4.777h-2.096
				c-2.626,0-4.777-2.151-4.777-4.777V46.165z M132.849,56.837c0,2.207,1.816,4.023,4.023,4.023h2.096
				c2.207,0,4.023-1.816,4.023-4.023v-2.319c0-2.207-1.816-4.023-4.023-4.023h-2.096c-2.151,0-4.023,1.788-4.023,3.939v0.782V56.837
				z"/>
		</g>
		<g enable-background="new    ">
			<path fill="#FFFFFF" d="M147.373,47.142c0,0.279-0.224,0.503-0.503,0.503s-0.503-0.224-0.503-0.503s0.224-0.503,0.503-0.503
				S147.373,46.863,147.373,47.142z M146.479,50.328c0-0.224,0.167-0.392,0.391-0.392c0.195,0,0.363,0.168,0.363,0.392v10.924
				c0,0.195-0.168,0.363-0.363,0.363c-0.224,0-0.391-0.168-0.391-0.363V50.328z"/>
		</g>
		<g enable-background="new    ">
			<path fill="#FFFFFF" d="M150.892,46.36c0-0.195,0.167-0.363,0.363-0.363c0.224,0,0.391,0.168,0.391,0.363v14.892
				c0,0.195-0.167,0.363-0.391,0.363c-0.196,0-0.363-0.168-0.363-0.363V46.36z"/>
		</g>
		<g enable-background="new    ">
			<path fill="#FFFFFF" d="M156.479,58.43c0.643,1.48,2.151,2.431,3.716,2.431h5.197c0.195,0,0.363,0.167,0.363,0.362
				c0,0.224-0.167,0.392-0.363,0.392h-5.197c-2.822,0-4.833-2.375-4.833-5.057V54.63c0-2.627,2.207-4.834,4.833-4.834h2.151
				c2.626,0,4.833,2.207,4.833,4.834v1.955c0,0.392-0.308,0.699-0.671,0.699h-10.533L156.479,58.43z M166.425,54.63
				c0-2.207-1.872-4.079-4.079-4.079h-2.151c-2.179,0-4.079,1.844-4.079,4.079v1.899h10.31V54.63z"/>
		</g>
		<g enable-background="new    ">
			<path fill="#FFFFFF" d="M185.753,46.444h0.028c0.391,0.279,0.698,0.671,0.894,1.117l5.671,13.579c0,0.027,0,0.083,0,0.111
				c0,0.195-0.14,0.363-0.335,0.363c-0.14,0-0.251-0.056-0.279-0.195l-1.704-4.079h-11.427l-1.704,4.079
				c-0.056,0.14-0.167,0.195-0.307,0.195c-0.168,0-0.335-0.14-0.335-0.335c0-0.057,0-0.084,0.028-0.14l5.672-13.579
				c0.195-0.475,0.503-0.865,0.95-1.146l0.056-0.056c0.419-0.251,0.866-0.363,1.341-0.363c0.503,0,1.006,0.14,1.425,0.419
				L185.753,46.444z M183.602,46.751l-0.335,0.224c-0.308,0.224-0.559,0.503-0.699,0.838l-3.688,8.856h10.868l-3.716-8.856
				c-0.112-0.308-0.335-0.614-0.643-0.811l-0.028-0.027c-0.307-0.196-0.67-0.308-1.062-0.308c-0.224,0-0.475,0.056-0.698,0.14
				V46.751z"/>
		</g>
		<g enable-background="new    ">
			<path fill="#FFFFFF" d="M194.55,54.546c0-2.57,2.179-4.75,4.75-4.75h2.096c2.57,0,4.75,2.18,4.75,4.75v2.318
				c0,2.57-2.18,4.75-4.75,4.75H199.3c-1.257,0-2.458-0.503-3.353-1.396l-0.643-0.643v7.319c0,0.195-0.167,0.363-0.391,0.363
				c-0.196,0-0.363-0.168-0.363-0.363V54.546z M195.304,56.949c0,2.151,1.9,3.912,3.995,3.912h2.096
				c2.179,0,3.995-1.816,3.995-3.996v-2.318c0-2.18-1.816-3.995-3.995-3.995H199.3c-2.179,0-3.995,1.815-3.995,3.995v1.62V56.949z"
				/>
		</g>
		<g enable-background="new    ">
			<path fill="#FFFFFF" d="M209.243,54.546c0-2.57,2.18-4.75,4.75-4.75h2.096c2.57,0,4.75,2.18,4.75,4.75v2.318
				c0,2.57-2.18,4.75-4.75,4.75h-2.096c-1.258,0-2.459-0.503-3.353-1.396l-0.643-0.643v7.319c0,0.195-0.167,0.363-0.392,0.363
				c-0.195,0-0.363-0.168-0.363-0.363V54.546z M209.998,56.949c0,2.151,1.899,3.912,3.995,3.912h2.096
				c2.18,0,3.995-1.816,3.995-3.996v-2.318c0-2.18-1.815-3.995-3.995-3.995h-2.096c-2.18,0-3.995,1.815-3.995,3.995v1.62V56.949z"/>
		</g>
		<g enable-background="new    ">
			<path fill="#FFFFFF" d="M223.936,46.36c0-0.195,0.168-0.363,0.363-0.363c0.224,0,0.391,0.168,0.391,0.363v14.892
				c0,0.195-0.167,0.363-0.391,0.363c-0.195,0-0.363-0.168-0.363-0.363V46.36z"/>
		</g>
		<g enable-background="new    ">
			<path fill="#FFFFFF" d="M229.41,47.142c0,0.279-0.224,0.503-0.503,0.503s-0.503-0.224-0.503-0.503s0.224-0.503,0.503-0.503
				S229.41,46.863,229.41,47.142z M228.516,50.328c0-0.224,0.167-0.392,0.391-0.392c0.195,0,0.363,0.168,0.363,0.392v10.924
				c0,0.195-0.168,0.363-0.363,0.363c-0.224,0-0.391-0.168-0.391-0.363V50.328z"/>
		</g>
		<g enable-background="new    ">
			<path fill="#FFFFFF" d="M242.289,60.861c0.196,0,0.363,0.167,0.363,0.362c0,0.224-0.167,0.392-0.363,0.392h-4.526
				c-2.626,0-4.833-2.207-4.833-4.833V54.63c0-2.627,2.207-4.834,4.833-4.834h4.526c0.196,0,0.363,0.168,0.363,0.392
				c0,0.195-0.167,0.363-0.363,0.363h-4.526c-2.15,0-4.078,1.815-4.078,4.079v2.151c0,2.207,1.871,4.079,4.078,4.079h4.163H242.289z
				"/>
		</g>
		<g enable-background="new    ">
			<path fill="#FFFFFF" d="M251.477,49.796c2.599,0,4.861,2.151,4.861,4.834v2.151c0,2.682-2.263,4.833-4.861,4.833h-3.102
				c-2.095,0-3.771-1.677-3.771-3.771c0-2.067,1.677-3.744,3.771-3.744h7.181l-0.112-0.447c-0.446-1.788-2.123-3.101-3.967-3.101
				h-4.945c-0.195,0-0.363-0.168-0.363-0.363c0-0.224,0.168-0.392,0.363-0.392h0.363H251.477z M251.477,60.861
				c2.264,0,4.079-1.9,4.079-4.079v-1.928h-7.181c-1.676,0-3.017,1.341-3.017,2.989c0,1.676,1.341,3.018,3.017,3.018h1.677H251.477z
				"/>
		</g>
		<g enable-background="new    ">
			<path fill="#FFFFFF" d="M259.969,56.837c0,2.207,1.815,4.023,4.022,4.023h1.062c0.195,0,0.363,0.167,0.363,0.391
				c0,0.195-0.168,0.363-0.363,0.363h-1.062c-2.625,0-4.777-2.151-4.777-4.777V46.36c0-0.195,0.168-0.363,0.363-0.363
				c0.225,0,0.392,0.168,0.392,0.363v3.409h4.806c0.223,0,0.391,0.167,0.391,0.363c0,0.223-0.168,0.391-0.391,0.391h-4.806v4.917
				V56.837z"/>
		</g>
		<g enable-background="new    ">
			<path fill="#FFFFFF" d="M269.522,47.142c0,0.279-0.224,0.503-0.503,0.503s-0.503-0.224-0.503-0.503s0.224-0.503,0.503-0.503
				S269.522,46.863,269.522,47.142z M268.628,50.328c0-0.224,0.168-0.392,0.392-0.392c0.195,0,0.363,0.168,0.363,0.392v10.924
				c0,0.195-0.168,0.363-0.363,0.363c-0.224,0-0.392-0.168-0.392-0.363V50.328z"/>
		</g>
		<g enable-background="new    ">
			<path fill="#FFFFFF" d="M280.025,49.796c2.626,0,4.833,2.207,4.833,4.834v2.151c0,2.626-2.207,4.833-4.833,4.833h-2.151
				c-2.627,0-4.834-2.207-4.834-4.833V54.63c0-2.627,2.207-4.834,4.834-4.834H280.025z M277.874,50.551
				c-2.151,0-4.079,1.815-4.079,4.079v2.151c0,2.179,1.872,4.079,4.079,4.079h2.151c2.207,0,4.079-1.872,4.079-4.079V54.63
				c0-2.235-1.9-4.079-4.079-4.079H277.874z"/>
		</g>
		<g enable-background="new    ">
			<path fill="#FFFFFF" d="M299.552,61.223c0,0.224-0.168,0.392-0.392,0.392c-0.195,0-0.362-0.168-0.362-0.392V54.63
				c0-2.235-1.9-4.079-4.08-4.079h-2.15c-2.18,0-4.023,1.844-4.08,3.995v6.677c0,0.224-0.167,0.392-0.363,0.392
				c-0.223,0-0.391-0.168-0.391-0.392v-6.649c0.056-2.598,2.207-4.777,4.834-4.777h2.15c2.599,0,4.834,2.207,4.834,4.777v0.028
				V61.223z"/>
		</g>
		<g enable-background="new    ">
			<path fill="#FFFFFF" d="M312.54,53.066c-0.195,0-0.363-0.168-0.363-0.363c0-0.112,0-0.196,0-0.252
				c0-0.363-0.224-0.838-0.475-1.146l-0.112-0.111c-0.392-0.392-0.923-0.615-1.481-0.615h-4.554c-1.146,0-2.095,0.95-2.095,2.096
				c0,4.247,9.807,1.006,9.807,6.062c0,1.537-1.258,2.878-2.879,2.878h-4.973c-1.453,0-2.85-1.201-2.85-2.57
				c0-0.279,0.027-0.727,0.391-0.727c0.225,0,0.392,0.168,0.392,0.392c0,0.14,0,0.224,0,0.307c0,1.006,1.09,1.816,2.067,1.816h4.973
				c1.146,0,2.096-0.95,2.096-2.096c0-1.62-1.48-2.123-2.626-2.347c-2.431-0.475-7.181-0.308-7.181-3.716
				c0-1.62,1.342-2.878,2.878-2.878h4.554c0.755,0,1.481,0.308,2.012,0.839l0.084,0.083c0.42,0.447,0.754,1.118,0.754,1.705
				c0,0.083-0.027,0.167-0.027,0.279C312.93,52.898,312.762,53.066,312.54,53.066z"/>
		</g>
	</g>
	<g enable-background="new    ">
		<path d="M95.766,71.731c0.03-1.92,1.635-3.479,3.525-3.479h1.485c0.105,0,0.195,0.09,0.195,0.195c0,0.12-0.09,0.21-0.195,0.21
			h-1.485c-1.71,0-3.12,1.41-3.12,3.12v2.175h4.605c0.105,0,0.195,0.09,0.195,0.21c0,0.104-0.09,0.194-0.195,0.194h-4.605v2.085
			c0,0.105-0.09,0.195-0.21,0.195c-0.105,0-0.195-0.09-0.195-0.195v-0.194V71.731z"/>
	</g>
	<g enable-background="new    ">
		<path d="M107.676,70.292c1.41,0,2.595,1.185,2.595,2.595v1.155c0,1.41-1.185,2.595-2.595,2.595h-1.155
			c-1.41,0-2.595-1.185-2.595-2.595v-1.155c0-1.41,1.185-2.595,2.595-2.595H107.676z M106.521,70.697
			c-1.155,0-2.19,0.975-2.19,2.189v1.155c0,1.17,1.005,2.189,2.19,2.189h1.155c1.185,0,2.19-1.005,2.19-2.189v-1.155
			c0-1.2-1.02-2.189-2.19-2.189H106.521z"/>
	</g>
	<g enable-background="new    ">
		<path d="M113.016,72.856c0.03-1.395,1.185-2.564,2.595-2.564h0.81c0.69,0,1.35,0.27,1.83,0.765c0.045,0.03,0.06,0.09,0.06,0.136
			c0,0.119-0.09,0.21-0.195,0.21c-0.06,0-0.105-0.016-0.15-0.061c-0.42-0.405-0.975-0.645-1.545-0.645h-0.81
			c-1.155,0-2.16,0.975-2.19,2.145v3.585c0,0.12-0.09,0.21-0.195,0.21c-0.12,0-0.21-0.09-0.21-0.21v-3.555V72.856z"/>
	</g>
	<g enable-background="new    ">
		<path d="M130.656,68.492h0.015c0.21,0.149,0.375,0.359,0.48,0.6l3.045,7.29c0,0.015,0,0.045,0,0.06
			c0,0.105-0.075,0.195-0.18,0.195c-0.075,0-0.135-0.03-0.15-0.105l-0.915-2.189h-6.135l-0.915,2.189
			c-0.03,0.075-0.09,0.105-0.165,0.105c-0.09,0-0.18-0.075-0.18-0.18c0-0.03,0-0.045,0.015-0.075l3.045-7.29
			c0.105-0.255,0.27-0.465,0.51-0.615l0.03-0.029c0.225-0.135,0.465-0.195,0.72-0.195c0.27,0,0.54,0.075,0.765,0.225L130.656,68.492
			z M129.501,68.657l-0.18,0.12c-0.165,0.12-0.3,0.27-0.375,0.449l-1.979,4.755h5.834l-1.995-4.755
			c-0.06-0.164-0.18-0.329-0.345-0.435l-0.015-0.015c-0.165-0.105-0.36-0.165-0.57-0.165c-0.12,0-0.255,0.029-0.375,0.075V68.657z"
			/>
	</g>
	<g enable-background="new    ">
		<path d="M142.925,76.426c0,0.12-0.09,0.21-0.21,0.21c-0.105,0-0.195-0.09-0.195-0.21v-3.54c0-1.2-1.02-2.189-2.19-2.189h-1.155
			c-1.17,0-2.16,0.989-2.19,2.145v3.585c0,0.12-0.09,0.21-0.195,0.21c-0.12,0-0.21-0.09-0.21-0.21v-3.57
			c0.03-1.395,1.185-2.564,2.595-2.564h1.155c1.395,0,2.595,1.185,2.595,2.564v0.016V76.426z"/>
	</g>
	<g enable-background="new    ">
		<path d="M150.844,76.997c0,1.38-1.17,2.55-2.55,2.55h-0.57c-0.105,0-0.195-0.09-0.195-0.195c0-0.12,0.09-0.21,0.195-0.21h0.57
			c1.17,0,2.145-0.975,2.145-2.145v-2.7l-0.345,0.345c-0.48,0.48-1.125,0.75-1.8,0.75c-1.38,0-2.55-1.17-2.55-2.55v-2.354
			c0-0.105,0.09-0.195,0.195-0.195c0.12,0,0.21,0.09,0.21,0.195v2.354c0,1.17,0.975,2.145,2.145,2.145s2.145-0.975,2.145-2.145
			v-2.37l0.015-0.015v-0.03l0.015-0.03l0.015-0.015l0.015-0.03l0.03-0.029l0.03-0.016l0.03-0.015h0.03h0.03h0.03h0.03l0.015,0.015
			l0.03,0.016l0.015,0.015l0.015,0.015l0.015,0.016l0.015,0.029l0.015,0.016l0.015,0.015v0.03v0.03V76.997z"/>
	</g>
	<g enable-background="new    ">
		<path d="M163.46,76.231c0.105,0,0.195,0.09,0.195,0.195c0,0.12-0.09,0.21-0.195,0.21h-2.43c-1.41,0-2.595-1.185-2.595-2.595
			v-1.155c0-1.41,1.185-2.595,2.595-2.595h2.43c0.105,0,0.195,0.09,0.195,0.21c0,0.105-0.09,0.195-0.195,0.195h-2.43
			c-1.155,0-2.19,0.975-2.19,2.189v1.155c0,1.185,1.005,2.189,2.19,2.189h2.235H163.46z"/>
	</g>
	<g enable-background="new    ">
		<path d="M169.594,70.292c1.395,0,2.61,1.155,2.61,2.595v1.155c0,1.439-1.215,2.595-2.61,2.595h-1.665
			c-1.125,0-2.025-0.9-2.025-2.025c0-1.109,0.9-2.01,2.025-2.01h3.854l-0.06-0.239c-0.24-0.96-1.14-1.665-2.13-1.665h-2.655
			c-0.105,0-0.195-0.09-0.195-0.195c0-0.12,0.09-0.21,0.195-0.21h0.195H169.594z M169.594,76.231c1.215,0,2.19-1.02,2.19-2.189
			v-1.035h-3.854c-0.9,0-1.62,0.72-1.62,1.604c0,0.9,0.72,1.62,1.62,1.62h0.9H169.594z"/>
	</g>
	<g enable-background="new    ">
		<path d="M175.355,74.072c0,1.185,0.975,2.159,2.16,2.159h0.57c0.105,0,0.195,0.09,0.195,0.21c0,0.105-0.09,0.195-0.195,0.195
			h-0.57c-1.41,0-2.565-1.155-2.565-2.564v-5.625c0-0.105,0.09-0.195,0.195-0.195c0.12,0,0.21,0.09,0.21,0.195v1.83h2.58
			c0.12,0,0.21,0.09,0.21,0.194c0,0.12-0.09,0.21-0.21,0.21h-2.58v2.641V74.072z"/>
	</g>
	<g enable-background="new    ">
		<path d="M181.744,74.926c0.345,0.795,1.155,1.305,1.995,1.305h2.79c0.105,0,0.195,0.09,0.195,0.195c0,0.12-0.09,0.21-0.195,0.21
			h-2.79c-1.515,0-2.595-1.275-2.595-2.715v-1.035c0-1.41,1.185-2.595,2.595-2.595h1.155c1.41,0,2.595,1.185,2.595,2.595v1.05
			c0,0.21-0.165,0.375-0.36,0.375h-5.655L181.744,74.926z M187.084,72.886c0-1.185-1.005-2.189-2.19-2.189h-1.155
			c-1.17,0-2.19,0.989-2.19,2.189v1.021h5.535V72.886z"/>
	</g>
	<g enable-background="new    ">
		<path d="M192.979,75.736c0,0.21,0.165,0.375,0.36,0.375c1.095,0,1.98,0.886,1.98,1.965c0,1.096-0.885,1.98-1.98,1.98
			c-1.095,0-1.98-0.885-1.98-1.98c0-0.104,0.09-0.194,0.21-0.194c0.105,0,0.195,0.09,0.195,0.194c0,0.87,0.705,1.575,1.575,1.575
			c0.87,0,1.575-0.705,1.575-1.575c0-0.869-0.705-1.574-1.575-1.574c-0.42,0-0.765-0.33-0.765-0.766
			c0-0.149,0.045-0.255,0.105-0.345l-0.24-0.03c-1.245-0.149-2.205-1.274-2.205-2.52c0-1.395,1.17-2.55,2.55-2.55h1.125
			c1.38,0,2.535,1.155,2.535,2.55c0,0.675-0.27,1.32-0.735,1.785c-0.645,0.645-1.35,0.75-2.28,0.75
			C193.203,75.376,192.979,75.466,192.979,75.736z M192.783,70.697c-1.155,0-2.145,0.96-2.145,2.145c0,1.17,0.99,2.13,2.145,2.13
			h1.125c1.14,0,2.145-0.945,2.145-2.13s-1.005-2.145-2.145-2.145H192.783z"/>
	</g>
	<g enable-background="new    ">
		<path d="M202.999,70.292c1.41,0,2.595,1.185,2.595,2.595v1.155c0,1.41-1.185,2.595-2.595,2.595h-1.155
			c-1.41,0-2.595-1.185-2.595-2.595v-1.155c0-1.41,1.185-2.595,2.595-2.595H202.999z M201.844,70.697
			c-1.155,0-2.19,0.975-2.19,2.189v1.155c0,1.17,1.005,2.189,2.19,2.189h1.155c1.185,0,2.19-1.005,2.19-2.189v-1.155
			c0-1.2-1.02-2.189-2.19-2.189H201.844z"/>
	</g>
	<g enable-background="new    ">
		<path d="M208.339,72.856c0.029-1.395,1.186-2.564,2.595-2.564h0.81c0.69,0,1.351,0.27,1.83,0.765
			c0.045,0.03,0.061,0.09,0.061,0.136c0,0.119-0.09,0.21-0.195,0.21c-0.06,0-0.105-0.016-0.15-0.061
			c-0.42-0.405-0.975-0.645-1.545-0.645h-0.81c-1.155,0-2.159,0.975-2.19,2.145v3.585c0,0.12-0.09,0.21-0.194,0.21
			c-0.12,0-0.21-0.09-0.21-0.21v-3.555V72.856z"/>
	</g>
	<g enable-background="new    ">
		<path d="M221.448,76.997c0,1.38-1.17,2.55-2.549,2.55h-0.57c-0.105,0-0.195-0.09-0.195-0.195c0-0.12,0.09-0.21,0.195-0.21h0.57
			c1.17,0,2.145-0.975,2.145-2.145v-2.7l-0.346,0.345c-0.479,0.48-1.124,0.75-1.799,0.75c-1.381,0-2.551-1.17-2.551-2.55v-2.354
			c0-0.105,0.09-0.195,0.195-0.195c0.12,0,0.21,0.09,0.21,0.195v2.354c0,1.17,0.976,2.145,2.146,2.145s2.145-0.975,2.145-2.145
			v-2.37l0.016-0.015v-0.03l0.014-0.03l0.016-0.015l0.016-0.03l0.029-0.029l0.03-0.016l0.03-0.015h0.029h0.03h0.03h0.029
			l0.016,0.015l0.029,0.016l0.016,0.015l0.016,0.015l0.014,0.016l0.016,0.029l0.016,0.016l0.014,0.015v0.03v0.03V76.997z"/>
	</g>
	<g enable-background="new    ">
		<path d="M225.124,76.336c0,0.165-0.15,0.3-0.314,0.3c-0.166,0-0.301-0.135-0.301-0.3s0.135-0.3,0.301-0.3
			C224.973,76.037,225.124,76.171,225.124,76.336z M225.018,74.702c0,0.12-0.09,0.21-0.209,0.21c-0.105,0-0.195-0.09-0.195-0.21
			c0-2.085,0-4.17,0-6.255c0-0.12,0.09-0.21,0.195-0.21c0.119,0,0.209,0.09,0.209,0.21
			C225.018,70.532,225.018,72.617,225.018,74.702z"/>
	</g>
	<g enable-background="new    ">
		<path d="M237.903,76.997c0,1.38-1.17,2.55-2.551,2.55h-0.569c-0.104,0-0.194-0.09-0.194-0.195c0-0.12,0.09-0.21,0.194-0.21h0.569
			c1.17,0,2.146-0.975,2.146-2.145v-2.7l-0.345,0.345c-0.48,0.48-1.125,0.75-1.801,0.75c-1.379,0-2.549-1.17-2.549-2.55v-2.354
			c0-0.105,0.09-0.195,0.194-0.195c0.12,0,0.21,0.09,0.21,0.195v2.354c0,1.17,0.975,2.145,2.145,2.145s2.146-0.975,2.146-2.145
			v-2.37l0.015-0.015v-0.03l0.016-0.03l0.015-0.015l0.015-0.03l0.03-0.029l0.03-0.016l0.029-0.015h0.031h0.029h0.029h0.031
			l0.015,0.015l0.03,0.016l0.015,0.015l0.015,0.015l0.016,0.016l0.015,0.029l0.015,0.016l0.016,0.015v0.03v0.03V76.997z"/>
	</g>
	<g enable-background="new    ">
		<path d="M244.713,70.292c1.409,0,2.595,1.185,2.595,2.595v1.155c0,1.41-1.186,2.595-2.595,2.595h-1.155
			c-1.41,0-2.595-1.185-2.595-2.595v-1.155c0-1.41,1.185-2.595,2.595-2.595H244.713z M243.557,70.697
			c-1.154,0-2.189,0.975-2.189,2.189v1.155c0,1.17,1.005,2.189,2.189,2.189h1.155c1.185,0,2.19-1.005,2.19-2.189v-1.155
			c0-1.2-1.021-2.189-2.19-2.189H243.557z"/>
	</g>
	<g enable-background="new    ">
		<path d="M250.053,70.501c0-0.12,0.09-0.21,0.209-0.21c0.105,0,0.195,0.09,0.195,0.21v3.57c0.03,1.199,1.035,2.159,2.189,2.159
			h0.541c1.185,0,2.189-1.005,2.189-2.189v-3.54c0-0.12,0.09-0.21,0.195-0.21c0.119,0,0.21,0.09,0.21,0.21v3.57
			c-0.03,1.395-1.185,2.564-2.595,2.564h-0.541c-1.409,0-2.564-1.17-2.594-2.564v-0.016V70.501z"/>
	</g>
	<g enable-background="new    ">
		<path d="M269.163,76.426c0,0.12-0.09,0.21-0.211,0.21c-0.104,0-0.194-0.09-0.194-0.21v-3.54c0-1.2-1.021-2.189-2.19-2.189h-1.154
			c-1.17,0-2.16,0.989-2.19,2.145v3.585c0,0.12-0.09,0.21-0.194,0.21c-0.121,0-0.211-0.09-0.211-0.21v-3.57
			c0.03-1.395,1.186-2.564,2.596-2.564h1.154c1.396,0,2.596,1.185,2.596,2.564v0.016V76.426z"/>
	</g>
	<g enable-background="new    ">
		<path d="M275.372,70.292c1.395,0,2.609,1.155,2.609,2.595v1.155c0,1.439-1.215,2.595-2.609,2.595h-1.665
			c-1.125,0-2.024-0.9-2.024-2.025c0-1.109,0.899-2.01,2.024-2.01h3.854l-0.061-0.239c-0.239-0.96-1.139-1.665-2.129-1.665h-2.655
			c-0.104,0-0.194-0.09-0.194-0.195c0-0.12,0.09-0.21,0.194-0.21h0.195H275.372z M275.372,76.231c1.215,0,2.189-1.02,2.189-2.189
			v-1.035h-3.854c-0.899,0-1.62,0.72-1.62,1.604c0,0.9,0.721,1.62,1.62,1.62h0.899H275.372z"/>
	</g>
	<g enable-background="new    ">
		<path d="M291.782,76.426c0,0.12-0.09,0.21-0.209,0.21c-0.105,0-0.211-0.09-0.211-0.21v-3.54c0-1.215-1.02-2.189-2.175-2.189h-0.54
			c-1.199,0-2.16,1.005-2.189,2.145v3.585c0,0.12-0.09,0.21-0.211,0.21c-0.104,0-0.194-0.09-0.194-0.21v-3.54
			c0-1.2-1.021-2.189-2.19-2.189h-0.539c-1.155,0-2.16,0.975-2.19,2.145v3.585c0,0.12-0.09,0.21-0.194,0.21
			c-0.121,0-0.211-0.09-0.211-0.21v-3.57c0.03-1.395,1.186-2.564,2.596-2.564h0.539c0.886,0,1.756,0.465,2.221,1.26l0.164,0.285
			l0.166-0.285c0.525-0.795,1.32-1.26,2.234-1.26h0.54c1.396,0,2.565,1.155,2.595,2.564v0.016V76.426z"/>
	</g>
	<g enable-background="new    ">
		<path d="M294.902,74.926c0.345,0.795,1.155,1.305,1.995,1.305h2.789c0.105,0,0.195,0.09,0.195,0.195c0,0.12-0.09,0.21-0.195,0.21
			h-2.789c-1.516,0-2.596-1.275-2.596-2.715v-1.035c0-1.41,1.186-2.595,2.596-2.595h1.154c1.41,0,2.596,1.185,2.596,2.595v1.05
			c0,0.21-0.166,0.375-0.36,0.375h-5.655L294.902,74.926z M300.242,72.886c0-1.185-1.005-2.189-2.19-2.189h-1.154
			c-1.17,0-2.19,0.989-2.19,2.189v1.021h5.535V72.886z"/>
	</g>
	<g enable-background="new    ">
		<path d="M308.461,68.867c0,0.149-0.12,0.27-0.271,0.27c-0.149,0-0.27-0.12-0.27-0.27c0-0.15,0.12-0.271,0.27-0.271
			C308.341,68.596,308.461,68.716,308.461,68.867z M307.981,70.577c0-0.12,0.09-0.21,0.209-0.21c0.105,0,0.195,0.09,0.195,0.21
			v5.864c0,0.105-0.09,0.195-0.195,0.195c-0.119,0-0.209-0.09-0.209-0.195V70.577z"/>
	</g>
	<g enable-background="new    ">
		<path d="M311.957,74.072c0,1.185,0.976,2.159,2.16,2.159h0.569c0.105,0,0.195,0.09,0.195,0.21c0,0.105-0.09,0.195-0.195,0.195
			h-0.569c-1.41,0-2.565-1.155-2.565-2.564v-5.625c0-0.105,0.09-0.195,0.195-0.195c0.12,0,0.21,0.09,0.21,0.195v1.83h2.58
			c0.12,0,0.21,0.09,0.21,0.194c0,0.12-0.09,0.21-0.21,0.21h-2.58v2.641V74.072z"/>
	</g>
	<path opacity="0.5" fill="none" stroke="#FFFFFF" stroke-miterlimit="10" enable-background="new    " d="M349.158,76.095
		c0,8.473-6.866,15.339-15.338,15.339H77.291c-8.472,0-15.338-6.866-15.338-15.339V45.117c0-8.473,6.866-15.339,15.338-15.339
		H333.82c8.472,0,15.338,6.866,15.338,15.339V76.095L349.158,76.095z"/>
</g>
</svg>
