<?xml version="1.0" encoding="utf-8"?>
<!-- Generator: Adobe Illustrator 15.0.0, SVG Export Plug-In . SVG Version: 6.00 Build 0)  -->
<!DOCTYPE svg PUBLIC "-//W3C//DTD SVG 1.1//EN" "http://www.w3.org/Graphics/SVG/1.1/DTD/svg11.dtd">
<svg version="1.1" id="Layer_1" xmlns="http://www.w3.org/2000/svg" xmlns:xlink="http://www.w3.org/1999/xlink" x="0px" y="0px"
	 width="411.111px" height="121.211px" viewBox="0 0 411.111 121.211" enable-background="new 0 0 411.111 121.211"
	 xml:space="preserve">
<g>
	<g>
		<g enable-background="new    ">
			<path fill="#FFFFFF" d="M95.294,46.444h0.028c0.391,0.279,0.698,0.671,0.894,1.117l5.671,13.579c0,0.027,0,0.083,0,0.111
				c0,0.195-0.14,0.363-0.335,0.363c-0.14,0-0.251-0.056-0.279-0.195l-1.704-4.079H88.142l-1.704,4.079
				c-0.056,0.14-0.167,0.195-0.307,0.195c-0.168,0-0.335-0.14-0.335-0.335c0-0.057,0-0.084,0.028-0.14l5.672-13.579
				c0.195-0.475,0.503-0.865,0.95-1.146L92.5,46.36c0.419-0.251,0.866-0.363,1.341-0.363c0.503,0,1.006,0.14,1.425,0.419
				L95.294,46.444z M93.143,46.751l-0.335,0.224c-0.308,0.224-0.559,0.503-0.699,0.838l-3.688,8.856H99.29l-3.716-8.856
				c-0.112-0.308-0.335-0.614-0.643-0.811l-0.028-0.027c-0.307-0.196-0.67-0.308-1.062-0.308c-0.224,0-0.475,0.056-0.698,0.14
				V46.751z"/>
		</g>
		<g enable-background="new    ">
			<path fill="#FFFFFF" d="M104.091,50.775c0-2.627,2.151-4.778,4.777-4.778h1.062c0.195,0,0.363,0.168,0.363,0.363
				c0,0.224-0.168,0.392-0.363,0.392h-1.062c-2.207,0-4.023,1.788-4.023,4.023v5.811h4.806c0.223,0,0.391,0.168,0.391,0.392
				c0,0.195-0.168,0.363-0.391,0.363h-4.806v3.911c0,0.195-0.167,0.363-0.391,0.363c-0.196,0-0.363-0.168-0.363-0.363v-9.08V50.775z
				"/>
		</g>
		<g enable-background="new    ">
			<path fill="#FFFFFF" d="M113.17,50.775c0-2.627,2.151-4.778,4.777-4.778h1.062c0.195,0,0.363,0.168,0.363,0.363
				c0,0.224-0.168,0.392-0.363,0.392h-1.062c-2.207,0-4.023,1.788-4.023,4.023v5.811h4.806c0.223,0,0.391,0.168,0.391,0.392
				c0,0.195-0.168,0.363-0.391,0.363h-4.806v3.911c0,0.195-0.167,0.363-0.391,0.363c-0.196,0-0.363-0.168-0.363-0.363v-9.08V50.775z
				"/>
		</g>
		<g enable-background="new    ">
			<path fill="#FFFFFF" d="M129.233,49.796c2.626,0,4.833,2.207,4.833,4.834v2.151c0,2.626-2.208,4.833-4.833,4.833h-2.151
				c-2.626,0-4.833-2.207-4.833-4.833V54.63c0-2.627,2.207-4.834,4.833-4.834H129.233z M127.082,50.551
				c-2.151,0-4.079,1.815-4.079,4.079v2.151c0,2.179,1.872,4.079,4.079,4.079h2.151c2.207,0,4.079-1.872,4.079-4.079V54.63
				c0-2.235-1.9-4.079-4.079-4.079H127.082z"/>
		</g>
		<g enable-background="new    ">
			<path fill="#FFFFFF" d="M136.94,54.574c0.056-2.598,2.207-4.777,4.833-4.777h1.509c1.285,0,2.514,0.503,3.408,1.425
				c0.084,0.057,0.112,0.168,0.112,0.252c0,0.224-0.167,0.391-0.363,0.391c-0.111,0-0.195-0.027-0.279-0.111
				c-0.782-0.755-1.816-1.201-2.877-1.201h-1.509c-2.151,0-4.023,1.815-4.079,3.995v6.677c0,0.224-0.167,0.392-0.363,0.392
				c-0.224,0-0.391-0.168-0.391-0.392v-6.621V54.574z"/>
		</g>
		<g enable-background="new    ">
			<path fill="#FFFFFF" d="M161.273,56.837c0,2.626-2.151,4.777-4.777,4.777H154.4c-2.626,0-4.777-2.151-4.777-4.777v-2.319
				c0-2.598,2.151-4.777,4.777-4.777h2.096c1.257,0,2.515,0.503,3.38,1.396l0.643,0.671v-5.644c0-0.224,0.168-0.392,0.391-0.392
				c0.196,0,0.363,0.168,0.363,0.392V56.837z M160.518,54.434c0-2.151-1.9-3.939-4.023-3.939H154.4
				c-2.207,0-4.023,1.816-4.023,4.023v2.319c0,2.207,1.816,4.023,4.023,4.023h2.096c2.207,0,4.023-1.816,4.023-4.023v-1.621V54.434z
				"/>
		</g>
		<g enable-background="new    ">
			<path fill="#FFFFFF" d="M170.908,49.796c2.599,0,4.862,2.151,4.862,4.834v2.151c0,2.682-2.263,4.833-4.862,4.833h-3.101
				c-2.095,0-3.771-1.677-3.771-3.771c0-2.067,1.676-3.744,3.771-3.744h7.18l-0.112-0.447c-0.447-1.788-2.123-3.101-3.967-3.101
				h-4.945c-0.196,0-0.363-0.168-0.363-0.363c0-0.224,0.167-0.392,0.363-0.392h0.363H170.908z M170.908,60.861
				c2.263,0,4.079-1.9,4.079-4.079v-1.928h-7.18c-1.676,0-3.017,1.341-3.017,2.989c0,1.676,1.341,3.018,3.017,3.018h1.676H170.908z"
				/>
		</g>
		<g enable-background="new    ">
			<path fill="#FFFFFF" d="M178.644,46.165c0-0.224,0.167-0.392,0.363-0.392c0.224,0,0.391,0.168,0.391,0.392v5.644l0.643-0.671
				c0.866-0.922,2.095-1.368,3.38-1.396h2.096c2.626,0,4.777,2.18,4.777,4.777v2.319c0,2.626-2.151,4.777-4.777,4.777h-2.096
				c-2.626,0-4.777-2.151-4.777-4.777V46.165z M179.399,56.837c0,2.207,1.816,4.023,4.023,4.023h2.096
				c2.207,0,4.023-1.816,4.023-4.023v-2.319c0-2.207-1.816-4.023-4.023-4.023h-2.096c-2.151,0-4.023,1.788-4.023,3.939v0.782V56.837
				z"/>
		</g>
		<g enable-background="new    ">
			<path fill="#FFFFFF" d="M192.918,46.36c0-0.195,0.167-0.363,0.363-0.363c0.224,0,0.391,0.168,0.391,0.363v14.892
				c0,0.195-0.167,0.363-0.391,0.363c-0.196,0-0.363-0.168-0.363-0.363V46.36z"/>
		</g>
		<g enable-background="new    ">
			<path fill="#FFFFFF" d="M198.504,58.43c0.643,1.48,2.151,2.431,3.716,2.431h5.197c0.195,0,0.362,0.167,0.362,0.362
				c0,0.224-0.167,0.392-0.362,0.392h-5.197c-2.822,0-4.833-2.375-4.833-5.057V54.63c0-2.627,2.207-4.834,4.833-4.834h2.151
				c2.626,0,4.833,2.207,4.833,4.834v1.955c0,0.392-0.307,0.699-0.67,0.699h-10.533L198.504,58.43z M208.45,54.63
				c0-2.207-1.872-4.079-4.079-4.079h-2.151c-2.179,0-4.079,1.844-4.079,4.079v1.899h10.31V54.63z"/>
		</g>
		<g enable-background="new    ">
			<path fill="#FFFFFF" d="M220.907,60.498c0.055,0.307,0.307,0.503,0.586,0.503c0.195,0,0.419-0.14,0.503-0.363l5.169-13.802
				c0.168-0.447,0.586-0.811,1.146-0.811c0.503,0,0.95,0.363,1.117,0.811l5.169,13.802c0.084,0.224,0.279,0.363,0.503,0.363
				s0.53-0.168,0.587-0.503l1.955-14.165c0.028-0.196,0.195-0.308,0.392-0.308c0.14,0.028,0.279,0.168,0.279,0.335
				c0,0.028,0,0.056,0,0.056l-1.983,14.193c-0.057,0.531-0.587,1.034-1.229,1.034c-0.503,0-0.95-0.308-1.118-0.782l-5.168-13.802
				c-0.084-0.196-0.308-0.363-0.503-0.363c-0.224,0-0.447,0.167-0.531,0.363l-5.169,13.802c-0.167,0.446-0.586,0.81-1.117,0.81
				c-0.67,0-1.174-0.503-1.229-1.062l-1.984-14.193c0,0,0-0.027,0-0.056c0-0.167,0.111-0.307,0.279-0.335
				c0.195,0,0.363,0.111,0.391,0.308L220.907,60.498z"/>
		</g>
		<g enable-background="new    ">
			<path fill="#FFFFFF" d="M241.854,58.43c0.643,1.48,2.152,2.431,3.717,2.431h5.196c0.195,0,0.362,0.167,0.362,0.362
				c0,0.224-0.167,0.392-0.362,0.392h-5.196c-2.822,0-4.834-2.375-4.834-5.057V54.63c0-2.627,2.207-4.834,4.834-4.834h2.15
				c2.627,0,4.834,2.207,4.834,4.834v1.955c0,0.392-0.308,0.699-0.671,0.699h-10.532L241.854,58.43z M251.802,54.63
				c0-2.207-1.873-4.079-4.08-4.079h-2.15c-2.18,0-4.08,1.844-4.08,4.079v1.899h10.311V54.63z"/>
		</g>
		<g enable-background="new    ">
			<path fill="#FFFFFF" d="M255.431,46.165c0-0.224,0.167-0.392,0.363-0.392c0.224,0,0.392,0.168,0.392,0.392v5.644l0.643-0.671
				c0.865-0.922,2.095-1.368,3.38-1.396h2.096c2.626,0,4.777,2.18,4.777,4.777v2.319c0,2.626-2.151,4.777-4.777,4.777h-2.096
				c-2.626,0-4.777-2.151-4.777-4.777V46.165z M256.186,56.837c0,2.207,1.815,4.023,4.022,4.023h2.096
				c2.207,0,4.022-1.816,4.022-4.023v-2.319c0-2.207-1.815-4.023-4.022-4.023h-2.096c-2.151,0-4.022,1.788-4.022,3.939v0.782V56.837
				z"/>
		</g>
		<g enable-background="new    ">
			<path fill="#FFFFFF" d="M279.678,53.066c-0.195,0-0.363-0.168-0.363-0.363c0-0.112,0-0.196,0-0.252
				c0-0.363-0.223-0.838-0.475-1.146l-0.111-0.111c-0.392-0.392-0.923-0.615-1.481-0.615h-4.554c-1.146,0-2.096,0.95-2.096,2.096
				c0,4.247,9.807,1.006,9.807,6.062c0,1.537-1.258,2.878-2.878,2.878h-4.974c-1.452,0-2.85-1.201-2.85-2.57
				c0-0.279,0.028-0.727,0.392-0.727c0.224,0,0.392,0.168,0.392,0.392c0,0.14,0,0.224,0,0.307c0,1.006,1.09,1.816,2.066,1.816h4.974
				c1.146,0,2.096-0.95,2.096-2.096c0-1.62-1.481-2.123-2.626-2.347c-2.432-0.475-7.181-0.308-7.181-3.716
				c0-1.62,1.341-2.878,2.878-2.878h4.554c0.755,0,1.481,0.308,2.012,0.839l0.083,0.083c0.42,0.447,0.755,1.118,0.755,1.705
				c0,0.083-0.028,0.167-0.028,0.279C280.069,52.898,279.902,53.066,279.678,53.066z"/>
		</g>
		<g enable-background="new    ">
			<path fill="#FFFFFF" d="M284.257,47.142c0,0.279-0.223,0.503-0.502,0.503s-0.504-0.224-0.504-0.503s0.225-0.503,0.504-0.503
				S284.257,46.863,284.257,47.142z M283.363,50.328c0-0.224,0.167-0.392,0.392-0.392c0.195,0,0.363,0.168,0.363,0.392v10.924
				c0,0.195-0.168,0.363-0.363,0.363c-0.225,0-0.392-0.168-0.392-0.363V50.328z"/>
		</g>
		<g enable-background="new    ">
			<path fill="#FFFFFF" d="M288.53,56.837c0,2.207,1.815,4.023,4.022,4.023h1.062c0.195,0,0.363,0.167,0.363,0.391
				c0,0.195-0.168,0.363-0.363,0.363h-1.062c-2.626,0-4.777-2.151-4.777-4.777V46.36c0-0.195,0.167-0.363,0.363-0.363
				c0.224,0,0.392,0.168,0.392,0.363v3.409h4.805c0.224,0,0.392,0.167,0.392,0.363c0,0.223-0.168,0.391-0.392,0.391h-4.805v4.917
				V56.837z"/>
		</g>
		<g enable-background="new    ">
			<path fill="#FFFFFF" d="M298.194,58.43c0.643,1.48,2.152,2.431,3.717,2.431h5.196c0.195,0,0.362,0.167,0.362,0.362
				c0,0.224-0.167,0.392-0.362,0.392h-5.196c-2.822,0-4.834-2.375-4.834-5.057V54.63c0-2.627,2.207-4.834,4.834-4.834h2.15
				c2.627,0,4.834,2.207,4.834,4.834v1.955c0,0.392-0.308,0.699-0.671,0.699h-10.532L298.194,58.43z M308.141,54.63
				c0-2.207-1.873-4.079-4.08-4.079h-2.15c-2.18,0-4.08,1.844-4.08,4.079v1.899h10.311V54.63z"/>
		</g>
		<g enable-background="new    ">
			<path fill="#FFFFFF" d="M321.745,53.066c-0.195,0-0.363-0.168-0.363-0.363c0-0.112,0-0.196,0-0.252
				c0-0.363-0.224-0.838-0.475-1.146l-0.112-0.111c-0.392-0.392-0.923-0.615-1.481-0.615h-4.554c-1.146,0-2.095,0.95-2.095,2.096
				c0,4.247,9.807,1.006,9.807,6.062c0,1.537-1.258,2.878-2.879,2.878h-4.973c-1.453,0-2.85-1.201-2.85-2.57
				c0-0.279,0.027-0.727,0.391-0.727c0.225,0,0.392,0.168,0.392,0.392c0,0.14,0,0.224,0,0.307c0,1.006,1.09,1.816,2.067,1.816h4.973
				c1.146,0,2.096-0.95,2.096-2.096c0-1.62-1.48-2.123-2.626-2.347c-2.431-0.475-7.181-0.308-7.181-3.716
				c0-1.62,1.342-2.878,2.878-2.878h4.554c0.755,0,1.481,0.308,2.012,0.839l0.084,0.083c0.42,0.447,0.754,1.118,0.754,1.705
				c0,0.083-0.027,0.167-0.027,0.279C322.135,52.898,321.968,53.066,321.745,53.066z"/>
		</g>
	</g>
	<g enable-background="new    ">
		<path d="M87.403,68.716c0,0.153-0.122,0.275-0.275,0.275c-0.153,0-0.275-0.122-0.275-0.275c0-0.152,0.122-0.275,0.275-0.275
			C87.281,68.441,87.403,68.564,87.403,68.716z M86.913,70.459c0-0.122,0.092-0.214,0.214-0.214c0.107,0,0.199,0.092,0.199,0.214
			v5.978c0,0.107-0.092,0.199-0.199,0.199c-0.123,0-0.214-0.092-0.214-0.199V70.459z"/>
	</g>
	<g enable-background="new    ">
		<path d="M95.797,76.422c0,0.122-0.092,0.214-0.214,0.214c-0.107,0-0.199-0.092-0.199-0.214v-3.608c0-1.224-1.04-2.232-2.232-2.232
			h-1.177c-1.192,0-2.202,1.009-2.232,2.187v3.654c0,0.122-0.091,0.214-0.199,0.214c-0.122,0-0.214-0.092-0.214-0.214v-3.639
			c0.031-1.422,1.208-2.615,2.645-2.615h1.177c1.422,0,2.645,1.208,2.645,2.615v0.015V76.422z"/>
	</g>
	<g enable-background="new    ">
		<path d="M102.572,76.223c0.107,0,0.199,0.092,0.199,0.199c0,0.122-0.092,0.214-0.199,0.214h-2.477
			c-1.437,0-2.645-1.208-2.645-2.646v-1.177c0-1.438,1.208-2.646,2.645-2.646h2.477c0.107,0,0.199,0.092,0.199,0.215
			c0,0.106-0.092,0.198-0.199,0.198h-2.477c-1.177,0-2.232,0.994-2.232,2.232v1.177c0,1.208,1.024,2.232,2.232,2.232h2.278H102.572z
			"/>
	</g>
	<g enable-background="new    ">
		<path d="M104.147,68.289c0-0.107,0.092-0.199,0.199-0.199c0.123,0,0.214,0.092,0.214,0.199v8.148c0,0.107-0.091,0.199-0.214,0.199
			c-0.107,0-0.199-0.092-0.199-0.199V68.289z"/>
	</g>
	<g enable-background="new    ">
		<path d="M106.594,70.383c0-0.123,0.092-0.215,0.214-0.215c0.107,0,0.199,0.092,0.199,0.215v3.639
			c0.031,1.223,1.055,2.201,2.232,2.201h0.55c1.208,0,2.232-1.024,2.232-2.232v-3.607c0-0.123,0.092-0.215,0.199-0.215
			c0.123,0,0.214,0.092,0.214,0.215v3.639c-0.03,1.422-1.208,2.614-2.645,2.614h-0.55c-1.437,0-2.614-1.192-2.645-2.614v-0.016
			V70.383z"/>
	</g>
	<g enable-background="new    ">
		<path d="M120.142,74.022c0,1.437-1.177,2.614-2.614,2.614h-1.147c-1.437,0-2.614-1.178-2.614-2.614v-1.27
			c0-1.422,1.177-2.614,2.614-2.614h1.147c0.688,0,1.376,0.275,1.85,0.765l0.352,0.367v-3.089c0-0.122,0.092-0.214,0.214-0.214
			c0.107,0,0.199,0.092,0.199,0.214V74.022z M119.729,72.707c0-1.177-1.04-2.155-2.202-2.155h-1.147
			c-1.208,0-2.202,0.993-2.202,2.201v1.27c0,1.208,0.994,2.201,2.202,2.201h1.147c1.208,0,2.202-0.993,2.202-2.201v-0.887V72.707z"
			/>
	</g>
	<g enable-background="new    ">
		<path d="M122.512,68.716c0,0.153-0.122,0.275-0.275,0.275c-0.153,0-0.275-0.122-0.275-0.275c0-0.152,0.122-0.275,0.275-0.275
			C122.39,68.441,122.512,68.564,122.512,68.716z M122.023,70.459c0-0.122,0.092-0.214,0.214-0.214c0.107,0,0.199,0.092,0.199,0.214
			v5.978c0,0.107-0.092,0.199-0.199,0.199c-0.123,0-0.214-0.092-0.214-0.199V70.459z"/>
	</g>
	<g enable-background="new    ">
		<path d="M130.906,76.422c0,0.122-0.092,0.214-0.214,0.214c-0.107,0-0.199-0.092-0.199-0.214v-3.608
			c0-1.224-1.04-2.232-2.232-2.232h-1.177c-1.192,0-2.202,1.009-2.232,2.187v3.654c0,0.122-0.091,0.214-0.199,0.214
			c-0.122,0-0.214-0.092-0.214-0.214v-3.639c0.031-1.422,1.208-2.615,2.645-2.615h1.177c1.422,0,2.645,1.208,2.645,2.615v0.015
			V76.422z"/>
	</g>
	<g enable-background="new    ">
		<path d="M135.358,75.719c0,0.214,0.168,0.382,0.367,0.382c1.116,0,2.018,0.902,2.018,2.003c0,1.116-0.902,2.019-2.018,2.019
			s-2.019-0.902-2.019-2.019c0-0.107,0.092-0.199,0.214-0.199c0.107,0,0.199,0.092,0.199,0.199c0,0.887,0.719,1.605,1.605,1.605
			s1.605-0.719,1.605-1.605s-0.719-1.605-1.605-1.605c-0.428,0-0.78-0.336-0.78-0.779c0-0.153,0.046-0.261,0.107-0.352l-0.245-0.031
			c-1.269-0.152-2.248-1.3-2.248-2.568c0-1.422,1.192-2.6,2.599-2.6h1.147c1.406,0,2.583,1.178,2.583,2.6
			c0,0.688-0.275,1.346-0.749,1.819c-0.657,0.657-1.376,0.765-2.324,0.765C135.588,75.352,135.358,75.444,135.358,75.719z
			 M135.159,70.582c-1.177,0-2.187,0.979-2.187,2.187c0,1.192,1.009,2.171,2.187,2.171h1.147c1.162,0,2.186-0.963,2.186-2.171
			s-1.024-2.187-2.186-2.187H135.159z"/>
	</g>
	<g enable-background="new    ">
		<path d="M155.189,76.422c0,0.122-0.092,0.214-0.214,0.214c-0.107,0-0.214-0.092-0.214-0.214v-3.608
			c0-1.238-1.04-2.232-2.217-2.232h-0.55c-1.223,0-2.202,1.024-2.232,2.187v3.654c0,0.122-0.091,0.214-0.214,0.214
			c-0.107,0-0.199-0.092-0.199-0.214v-3.608c0-1.224-1.04-2.232-2.232-2.232h-0.55c-1.177,0-2.202,0.994-2.232,2.187v3.654
			c0,0.122-0.091,0.214-0.199,0.214c-0.122,0-0.214-0.092-0.214-0.214v-3.639c0.031-1.422,1.208-2.615,2.645-2.615h0.55
			c0.902,0,1.789,0.475,2.263,1.285l0.168,0.29l0.168-0.29c0.535-0.811,1.346-1.285,2.278-1.285h0.55
			c1.422,0,2.615,1.178,2.645,2.615v0.015V76.422z"/>
	</g>
	<g enable-background="new    ">
		<path d="M160.361,70.168c1.438,0,2.645,1.208,2.645,2.646v1.177c0,1.438-1.208,2.646-2.645,2.646h-1.177
			c-1.437,0-2.645-1.208-2.645-2.646v-1.177c0-1.438,1.208-2.646,2.645-2.646H160.361z M159.183,70.582
			c-1.177,0-2.232,0.994-2.232,2.232v1.177c0,1.193,1.024,2.232,2.232,2.232h1.177c1.208,0,2.232-1.024,2.232-2.232v-1.177
			c0-1.224-1.04-2.232-2.232-2.232H159.183z"/>
	</g>
	<g enable-background="new    ">
		<path d="M164.581,68.181c0-0.122,0.092-0.214,0.199-0.214c0.123,0,0.214,0.092,0.214,0.214v3.089l0.352-0.367
			c0.474-0.505,1.146-0.749,1.85-0.765h1.147c1.437,0,2.614,1.192,2.614,2.614v1.27c0,1.437-1.177,2.614-2.614,2.614h-1.147
			c-1.437,0-2.614-1.178-2.614-2.614V68.181z M164.994,74.022c0,1.208,0.994,2.201,2.202,2.201h1.147
			c1.208,0,2.202-0.993,2.202-2.201v-1.27c0-1.208-0.994-2.201-2.202-2.201h-1.147c-1.177,0-2.202,0.979-2.202,2.155v0.429V74.022z"
			/>
	</g>
	<g enable-background="new    ">
		<path d="M172.946,68.716c0,0.153-0.122,0.275-0.275,0.275c-0.153,0-0.275-0.122-0.275-0.275c0-0.152,0.122-0.275,0.275-0.275
			C172.823,68.441,172.946,68.564,172.946,68.716z M172.456,70.459c0-0.122,0.092-0.214,0.214-0.214
			c0.107,0,0.199,0.092,0.199,0.214v5.978c0,0.107-0.092,0.199-0.199,0.199c-0.123,0-0.214-0.092-0.214-0.199V70.459z"/>
	</g>
	<g enable-background="new    ">
		<path d="M174.873,68.289c0-0.107,0.092-0.199,0.199-0.199c0.123,0,0.214,0.092,0.214,0.199v8.148c0,0.107-0.091,0.199-0.214,0.199
			c-0.107,0-0.199-0.092-0.199-0.199V68.289z"/>
	</g>
	<g enable-background="new    ">
		<path d="M177.93,74.893c0.352,0.811,1.178,1.33,2.034,1.33h2.844c0.107,0,0.199,0.092,0.199,0.199
			c0,0.122-0.092,0.214-0.199,0.214h-2.844c-1.544,0-2.645-1.3-2.645-2.768v-1.055c0-1.438,1.208-2.646,2.645-2.646h1.177
			c1.438,0,2.645,1.208,2.645,2.646v1.07c0,0.214-0.168,0.382-0.367,0.382h-5.764L177.93,74.893z M183.374,72.814
			c0-1.208-1.024-2.232-2.232-2.232h-1.177c-1.192,0-2.232,1.009-2.232,2.232v1.04h5.642V72.814z"/>
	</g>
	<g enable-background="new    ">
		<path d="M188.758,70.704c0-1.437,1.177-2.614,2.614-2.614h0.581c0.107,0,0.199,0.092,0.199,0.199c0,0.122-0.091,0.214-0.199,0.214
			h-0.581c-1.208,0-2.202,0.979-2.202,2.201v3.181h2.63c0.123,0,0.214,0.092,0.214,0.214c0,0.107-0.092,0.199-0.214,0.199h-2.63
			v2.14c0,0.107-0.091,0.199-0.214,0.199c-0.107,0-0.199-0.092-0.199-0.199v-4.969V70.704z"/>
	</g>
	<g enable-background="new    ">
		<path d="M193.727,72.784c0.031-1.422,1.208-2.615,2.645-2.615h0.826c0.703,0,1.376,0.275,1.865,0.78
			c0.046,0.03,0.061,0.092,0.061,0.138c0,0.122-0.092,0.214-0.199,0.214c-0.061,0-0.107-0.016-0.153-0.062
			c-0.428-0.412-0.994-0.657-1.575-0.657h-0.826c-1.177,0-2.202,0.994-2.232,2.187v3.654c0,0.122-0.091,0.214-0.199,0.214
			c-0.122,0-0.214-0.092-0.214-0.214v-3.624V72.784z"/>
	</g>
	<g enable-background="new    ">
		<path d="M201.22,68.716c0,0.153-0.122,0.275-0.275,0.275c-0.153,0-0.275-0.122-0.275-0.275c0-0.152,0.122-0.275,0.275-0.275
			C201.098,68.441,201.22,68.564,201.22,68.716z M200.731,70.459c0-0.122,0.092-0.214,0.214-0.214c0.107,0,0.199,0.092,0.199,0.214
			v5.978c0,0.107-0.092,0.199-0.199,0.199c-0.123,0-0.214-0.092-0.214-0.199V70.459z"/>
	</g>
	<g enable-background="new    ">
		<path d="M203.759,74.893c0.352,0.811,1.178,1.33,2.034,1.33h2.843c0.107,0,0.199,0.092,0.199,0.199
			c0,0.122-0.092,0.214-0.199,0.214h-2.843c-1.544,0-2.645-1.3-2.645-2.768v-1.055c0-1.438,1.208-2.646,2.645-2.646h1.177
			c1.438,0,2.645,1.208,2.645,2.646v1.07c0,0.214-0.168,0.382-0.366,0.382h-5.764L203.759,74.893z M209.202,72.814
			c0-1.208-1.024-2.232-2.232-2.232h-1.177c-1.192,0-2.232,1.009-2.232,2.232v1.04h5.642V72.814z"/>
	</g>
	<g enable-background="new    ">
		<path d="M217.657,76.422c0,0.122-0.092,0.214-0.213,0.214c-0.107,0-0.199-0.092-0.199-0.214v-3.608
			c0-1.224-1.04-2.232-2.232-2.232h-1.178c-1.191,0-2.201,1.009-2.232,2.187v3.654c0,0.122-0.091,0.214-0.198,0.214
			c-0.122,0-0.214-0.092-0.214-0.214v-3.639c0.031-1.422,1.208-2.615,2.645-2.615h1.178c1.422,0,2.645,1.208,2.645,2.615v0.015
			V76.422z"/>
	</g>
	<g enable-background="new    ">
		<path d="M225.686,74.022c0,1.437-1.178,2.614-2.615,2.614h-1.146c-1.438,0-2.614-1.178-2.614-2.614v-1.27
			c0-1.422,1.177-2.614,2.614-2.614h1.146c0.688,0,1.377,0.275,1.851,0.765l0.352,0.367v-3.089c0-0.122,0.092-0.214,0.214-0.214
			c0.107,0,0.199,0.092,0.199,0.214V74.022z M225.273,72.707c0-1.177-1.04-2.155-2.202-2.155h-1.146
			c-1.207,0-2.201,0.993-2.201,2.201v1.27c0,1.208,0.994,2.201,2.201,2.201h1.146c1.209,0,2.202-0.993,2.202-2.201v-0.887V72.707z"
			/>
	</g>
	<g enable-background="new    ">
		<path d="M227.508,68.289c0-0.107,0.092-0.199,0.198-0.199c0.123,0,0.215,0.092,0.215,0.199v8.148c0,0.107-0.092,0.199-0.215,0.199
			c-0.106,0-0.198-0.092-0.198-0.199V68.289z"/>
	</g>
	<g enable-background="new    ">
		<path d="M235.153,77.003c0,1.406-1.193,2.599-2.6,2.599h-0.581c-0.106,0-0.198-0.092-0.198-0.198c0-0.122,0.092-0.214,0.198-0.214
			h0.581c1.193,0,2.187-0.994,2.187-2.187v-2.752l-0.352,0.352c-0.489,0.489-1.147,0.765-1.835,0.765c-1.406,0-2.6-1.193-2.6-2.6
			v-2.4c0-0.107,0.092-0.199,0.199-0.199c0.123,0,0.214,0.092,0.214,0.199v2.4c0,1.192,0.994,2.187,2.187,2.187
			c1.193,0,2.187-0.994,2.187-2.187v-2.416l0.015-0.015v-0.031l0.016-0.03l0.016-0.016l0.016-0.03l0.03-0.03l0.03-0.016l0.031-0.016
			h0.03h0.03h0.031h0.029l0.016,0.016l0.031,0.016l0.016,0.015l0.015,0.016l0.015,0.016l0.016,0.03l0.016,0.016l0.016,0.015v0.031
			v0.03V77.003z"/>
	</g>
	<g enable-background="new    ">
		<path d="M245.566,76.223c0.106,0,0.198,0.092,0.198,0.199c0,0.122-0.092,0.214-0.198,0.214h-2.478
			c-1.437,0-2.645-1.208-2.645-2.646v-1.177c0-1.438,1.208-2.646,2.645-2.646h2.478c0.106,0,0.198,0.092,0.198,0.215
			c0,0.106-0.092,0.198-0.198,0.198h-2.478c-1.177,0-2.232,0.994-2.232,2.232v1.177c0,1.208,1.025,2.232,2.232,2.232h2.279H245.566z
			"/>
	</g>
	<g enable-background="new    ">
		<path d="M250.965,70.168c1.438,0,2.646,1.208,2.646,2.646v1.177c0,1.438-1.208,2.646-2.646,2.646h-1.177
			c-1.438,0-2.646-1.208-2.646-2.646v-1.177c0-1.438,1.208-2.646,2.646-2.646H250.965z M249.788,70.582
			c-1.178,0-2.232,0.994-2.232,2.232v1.177c0,1.193,1.023,2.232,2.232,2.232h1.177c1.208,0,2.232-1.024,2.232-2.232v-1.177
			c0-1.224-1.04-2.232-2.232-2.232H249.788z"/>
	</g>
	<g enable-background="new    ">
		<path d="M261.653,76.422c0,0.122-0.092,0.214-0.215,0.214c-0.106,0-0.198-0.092-0.198-0.214v-3.608
			c0-1.224-1.04-2.232-2.232-2.232h-1.177c-1.193,0-2.202,1.009-2.232,2.187v3.654c0,0.122-0.092,0.214-0.199,0.214
			c-0.122,0-0.214-0.092-0.214-0.214v-3.639c0.03-1.422,1.208-2.615,2.646-2.615h1.177c1.422,0,2.646,1.208,2.646,2.615v0.015
			V76.422z"/>
	</g>
	<g enable-background="new    ">
		<path d="M263.306,70.704c0-1.437,1.177-2.614,2.614-2.614h0.581c0.107,0,0.198,0.092,0.198,0.199c0,0.122-0.091,0.214-0.198,0.214
			h-0.581c-1.207,0-2.201,0.979-2.201,2.201v3.181h2.629c0.123,0,0.215,0.092,0.215,0.214c0,0.107-0.092,0.199-0.215,0.199h-2.629
			v2.14c0,0.107-0.092,0.199-0.215,0.199c-0.106,0-0.198-0.092-0.198-0.199v-4.969V70.704z"/>
	</g>
	<g enable-background="new    ">
		<path d="M268.827,68.716c0,0.153-0.123,0.275-0.275,0.275c-0.153,0-0.275-0.122-0.275-0.275c0-0.152,0.122-0.275,0.275-0.275
			C268.704,68.441,268.827,68.564,268.827,68.716z M268.337,70.459c0-0.122,0.092-0.214,0.215-0.214
			c0.107,0,0.199,0.092,0.199,0.214v5.978c0,0.107-0.092,0.199-0.199,0.199c-0.123,0-0.215-0.092-0.215-0.199V70.459z"/>
	</g>
	<g enable-background="new    ">
		<path d="M273.552,75.719c0,0.214,0.168,0.382,0.367,0.382c1.115,0,2.018,0.902,2.018,2.003c0,1.116-0.902,2.019-2.018,2.019
			c-1.117,0-2.02-0.902-2.02-2.019c0-0.107,0.092-0.199,0.215-0.199c0.107,0,0.199,0.092,0.199,0.199
			c0,0.887,0.719,1.605,1.605,1.605s1.605-0.719,1.605-1.605s-0.719-1.605-1.605-1.605c-0.429,0-0.78-0.336-0.78-0.779
			c0-0.153,0.046-0.261,0.106-0.352l-0.244-0.031c-1.27-0.152-2.248-1.3-2.248-2.568c0-1.422,1.193-2.6,2.6-2.6h1.146
			c1.406,0,2.584,1.178,2.584,2.6c0,0.688-0.275,1.346-0.749,1.819c-0.657,0.657-1.376,0.765-2.323,0.765
			C273.78,75.352,273.552,75.444,273.552,75.719z M273.352,70.582c-1.178,0-2.187,0.979-2.187,2.187
			c0,1.192,1.009,2.171,2.187,2.171h1.146c1.162,0,2.187-0.963,2.187-2.171s-1.024-2.187-2.187-2.187H273.352z"/>
	</g>
	<g enable-background="new    ">
		<path d="M278.72,70.383c0-0.123,0.092-0.215,0.214-0.215c0.107,0,0.199,0.092,0.199,0.215v3.639
			c0.03,1.223,1.055,2.201,2.232,2.201h0.55c1.208,0,2.232-1.024,2.232-2.232v-3.607c0-0.123,0.092-0.215,0.198-0.215
			c0.123,0,0.215,0.092,0.215,0.215v3.639c-0.031,1.422-1.208,2.614-2.646,2.614h-0.55c-1.438,0-2.615-1.192-2.646-2.614v-0.016
			V70.383z"/>
	</g>
	<g enable-background="new    ">
		<path d="M285.892,72.784c0.03-1.422,1.208-2.615,2.646-2.615h0.825c0.703,0,1.376,0.275,1.865,0.78
			c0.046,0.03,0.062,0.092,0.062,0.138c0,0.122-0.092,0.214-0.199,0.214c-0.061,0-0.107-0.016-0.152-0.062
			c-0.429-0.412-0.994-0.657-1.575-0.657h-0.825c-1.178,0-2.202,0.994-2.232,2.187v3.654c0,0.122-0.092,0.214-0.199,0.214
			c-0.122,0-0.214-0.092-0.214-0.214v-3.624V72.784z"/>
	</g>
	<g enable-background="new    ">
		<path d="M296.291,70.168c1.422,0,2.66,1.178,2.66,2.646v1.177c0,1.468-1.238,2.646-2.66,2.646h-1.697
			c-1.147,0-2.063-0.917-2.063-2.064c0-1.131,0.916-2.049,2.063-2.049h3.929l-0.061-0.244c-0.244-0.979-1.162-1.697-2.171-1.697
			h-2.706c-0.107,0-0.199-0.092-0.199-0.198c0-0.123,0.092-0.215,0.199-0.215h0.198H296.291z M296.291,76.223
			c1.238,0,2.231-1.039,2.231-2.232v-1.055h-3.929c-0.917,0-1.651,0.734-1.651,1.636c0,0.918,0.734,1.651,1.651,1.651h0.917H296.291
			z"/>
	</g>
	<g enable-background="new    ">
		<path d="M300.938,74.022c0,1.208,0.994,2.201,2.202,2.201h0.581c0.107,0,0.199,0.092,0.199,0.214c0,0.107-0.092,0.199-0.199,0.199
			h-0.581c-1.437,0-2.614-1.178-2.614-2.614v-5.733c0-0.107,0.092-0.199,0.199-0.199c0.122,0,0.213,0.092,0.213,0.199v1.865h2.631
			c0.122,0,0.214,0.092,0.214,0.198c0,0.123-0.092,0.214-0.214,0.214h-2.631v2.691V74.022z"/>
	</g>
	<g enable-background="new    ">
		<path d="M306.17,68.716c0,0.153-0.122,0.275-0.274,0.275c-0.154,0-0.275-0.122-0.275-0.275c0-0.152,0.121-0.275,0.275-0.275
			C306.048,68.441,306.17,68.564,306.17,68.716z M305.68,70.459c0-0.122,0.092-0.214,0.215-0.214c0.106,0,0.198,0.092,0.198,0.214
			v5.978c0,0.107-0.092,0.199-0.198,0.199c-0.123,0-0.215-0.092-0.215-0.199V70.459z"/>
	</g>
	<g enable-background="new    ">
		<path d="M311.92,70.168c1.438,0,2.646,1.208,2.646,2.646v1.177c0,1.438-1.208,2.646-2.646,2.646h-1.177
			c-1.438,0-2.646-1.208-2.646-2.646v-1.177c0-1.438,1.208-2.646,2.646-2.646H311.92z M310.743,70.582
			c-1.178,0-2.232,0.994-2.232,2.232v1.177c0,1.193,1.023,2.232,2.232,2.232h1.177c1.208,0,2.232-1.024,2.232-2.232v-1.177
			c0-1.224-1.04-2.232-2.232-2.232H310.743z"/>
	</g>
	<g enable-background="new    ">
		<path d="M322.608,76.422c0,0.122-0.092,0.214-0.215,0.214c-0.106,0-0.198-0.092-0.198-0.214v-3.608
			c0-1.224-1.04-2.232-2.232-2.232h-1.177c-1.193,0-2.202,1.009-2.232,2.187v3.654c0,0.122-0.092,0.214-0.199,0.214
			c-0.122,0-0.214-0.092-0.214-0.214v-3.639c0.03-1.422,1.208-2.615,2.646-2.615h1.177c1.422,0,2.646,1.208,2.646,2.615v0.015
			V76.422z"/>
	</g>
	<path opacity="0.5" fill="none" stroke="#FFFFFF" stroke-miterlimit="10" enable-background="new    " d="M339.158,76.095
		c0,8.473-6.866,15.339-15.338,15.339H87.291c-8.472,0-15.338-6.866-15.338-15.339V45.117c0-8.473,6.866-15.339,15.338-15.339
		H323.82c8.472,0,15.338,6.866,15.338,15.339V76.095L339.158,76.095z"/>
</g>
</svg>
