<?xml version="1.0" encoding="utf-8"?>
<!-- Generator: Adobe Illustrator 15.0.0, SVG Export Plug-In . SVG Version: 6.00 Build 0)  -->
<!DOCTYPE svg PUBLIC "-//W3C//DTD SVG 1.1//EN" "http://www.w3.org/Graphics/SVG/1.1/DTD/svg11.dtd">
<svg version="1.1" id="Layer_1" xmlns="http://www.w3.org/2000/svg" xmlns:xlink="http://www.w3.org/1999/xlink" x="0px" y="0px"
	 width="411.111px" height="121.211px" viewBox="0 0 411.111 121.211" enable-background="new 0 0 411.111 121.211"
	 xml:space="preserve">
<g>
	<g>
		<g enable-background="new    ">
			<path fill="#FFFFFF" d="M56.969,60.498C57.024,60.804,57.276,61,57.555,61c0.196,0,0.419-0.14,0.503-0.363l5.169-13.802
				c0.167-0.447,0.586-0.811,1.146-0.811c0.502,0,0.95,0.363,1.117,0.811l5.169,13.802C70.742,60.861,70.938,61,71.161,61
				c0.223,0,0.531-0.168,0.586-0.503l1.956-14.165c0.028-0.196,0.195-0.308,0.391-0.308c0.14,0.028,0.279,0.168,0.279,0.335
				c0,0.028,0,0.056,0,0.056L72.39,60.609c-0.056,0.531-0.586,1.034-1.229,1.034c-0.503,0-0.95-0.308-1.118-0.782l-5.169-13.802
				c-0.083-0.196-0.307-0.363-0.502-0.363c-0.224,0-0.447,0.167-0.531,0.363l-5.168,13.802c-0.167,0.446-0.587,0.81-1.118,0.81
				c-0.67,0-1.173-0.503-1.229-1.062l-1.984-14.193c0,0,0-0.027,0-0.056c0-0.167,0.112-0.307,0.279-0.335
				c0.196,0,0.363,0.111,0.391,0.308L56.969,60.498z"/>
		</g>
		<g enable-background="new    ">
			<path fill="#FFFFFF" d="M77.359,58.43c0.643,1.48,2.151,2.431,3.716,2.431h5.197c0.195,0,0.363,0.167,0.363,0.362
				c0,0.224-0.167,0.392-0.363,0.392h-5.197c-2.822,0-4.833-2.375-4.833-5.057V54.63c0-2.627,2.207-4.834,4.833-4.834h2.151
				c2.626,0,4.833,2.207,4.833,4.834v1.955c0,0.392-0.308,0.699-0.671,0.699H76.856L77.359,58.43z M87.305,54.63
				c0-2.207-1.872-4.079-4.079-4.079h-2.151c-2.179,0-4.079,1.844-4.079,4.079v1.899h10.31V54.63z"/>
		</g>
		<g enable-background="new    ">
			<path fill="#FFFFFF" d="M90.375,46.165c0-0.224,0.167-0.392,0.363-0.392c0.224,0,0.391,0.168,0.391,0.392v5.644l0.643-0.671
				c0.866-0.922,2.095-1.368,3.38-1.396h2.096c2.626,0,4.777,2.18,4.777,4.777v2.319c0,2.626-2.151,4.777-4.777,4.777h-2.096
				c-2.626,0-4.777-2.151-4.777-4.777V46.165z M91.13,56.837c0,2.207,1.816,4.023,4.023,4.023h2.096
				c2.207,0,4.023-1.816,4.023-4.023v-2.319c0-2.207-1.816-4.023-4.023-4.023h-2.096c-2.151,0-4.023,1.788-4.023,3.939v0.782V56.837
				z"/>
		</g>
		<g enable-background="new    ">
			<path fill="#FFFFFF" d="M110.654,60.693c-0.586-0.587-0.922-1.397-0.922-2.235v-9.304c0-0.838,0.335-1.648,0.922-2.235
				l0.084-0.083c0.586-0.531,1.341-0.839,2.151-0.839h3.883c3.604,0,6.566,3.018,6.566,6.566v2.486c0,3.576-2.962,6.565-6.566,6.565
				h-3.883c-0.811,0-1.565-0.308-2.151-0.838L110.654,60.693z M111.436,60.385c0.419,0.308,0.922,0.476,1.453,0.476h3.883
				c3.157,0,5.839-2.599,5.839-5.812v-2.486c0-3.214-2.682-5.812-5.839-5.812h-3.883c-0.531,0-1.034,0.167-1.453,0.475v-0.027
				l-0.251,0.251c-0.447,0.447-0.698,1.062-0.698,1.704v9.304c0,0.643,0.251,1.258,0.698,1.704l0.251,0.252V60.385z"/>
		</g>
		<g enable-background="new    ">
			<path fill="#FFFFFF" d="M126.297,58.43c0.643,1.48,2.151,2.431,3.716,2.431h5.197c0.195,0,0.363,0.167,0.363,0.362
				c0,0.224-0.167,0.392-0.363,0.392h-5.197c-2.822,0-4.833-2.375-4.833-5.057V54.63c0-2.627,2.207-4.834,4.833-4.834h2.151
				c2.626,0,4.833,2.207,4.833,4.834v1.955c0,0.392-0.308,0.699-0.671,0.699h-10.533L126.297,58.43z M136.243,54.63
				c0-2.207-1.872-4.079-4.079-4.079h-2.151c-2.179,0-4.079,1.844-4.079,4.079v1.899h10.31V54.63z"/>
		</g>
		<g enable-background="new    ">
			<path fill="#FFFFFF" d="M138.475,50.272c-0.028-0.028-0.028-0.084-0.028-0.14c0-0.168,0.14-0.336,0.363-0.336
				c0.112,0,0.251,0.084,0.307,0.195l4.163,9.975c0.251,0.587,0.754,0.95,1.453,0.95c0.643,0,1.174-0.363,1.453-0.95l4.163-9.975
				c0.028-0.111,0.168-0.195,0.28-0.195c0.195,0,0.363,0.14,0.363,0.336c0,0.056,0,0.111-0.028,0.14l-4.163,9.946
				c-0.363,0.894-1.174,1.396-2.068,1.396c-0.95,0-1.732-0.559-2.095-1.396L138.475,50.272z"/>
		</g>
		<g enable-background="new    ">
			<path fill="#FFFFFF" d="M154.118,58.43c0.643,1.48,2.151,2.431,3.716,2.431h5.197c0.195,0,0.363,0.167,0.363,0.362
				c0,0.224-0.167,0.392-0.363,0.392h-5.197c-2.822,0-4.833-2.375-4.833-5.057V54.63c0-2.627,2.207-4.834,4.833-4.834h2.151
				c2.626,0,4.833,2.207,4.833,4.834v1.955c0,0.392-0.308,0.699-0.671,0.699h-10.533L154.118,58.43z M164.064,54.63
				c0-2.207-1.872-4.079-4.079-4.079h-2.151c-2.179,0-4.079,1.844-4.079,4.079v1.899h10.31V54.63z"/>
		</g>
		<g enable-background="new    ">
			<path fill="#FFFFFF" d="M167.134,46.36c0-0.195,0.167-0.363,0.363-0.363c0.224,0,0.391,0.168,0.391,0.363v14.892
				c0,0.195-0.167,0.363-0.391,0.363c-0.196,0-0.363-0.168-0.363-0.363V46.36z"/>
		</g>
		<g enable-background="new    ">
			<path fill="#FFFFFF" d="M178.029,49.796c2.626,0,4.833,2.207,4.833,4.834v2.151c0,2.626-2.208,4.833-4.833,4.833h-2.151
				c-2.626,0-4.833-2.207-4.833-4.833V54.63c0-2.627,2.207-4.834,4.833-4.834H178.029z M175.878,50.551
				c-2.151,0-4.079,1.815-4.079,4.079v2.151c0,2.179,1.872,4.079,4.079,4.079h2.151c2.207,0,4.079-1.872,4.079-4.079V54.63
				c0-2.235-1.9-4.079-4.079-4.079H175.878z"/>
		</g>
		<g enable-background="new    ">
			<path fill="#FFFFFF" d="M185.178,54.546c0-2.57,2.179-4.75,4.75-4.75h2.096c2.57,0,4.75,2.18,4.75,4.75v2.318
				c0,2.57-2.179,4.75-4.75,4.75h-2.096c-1.257,0-2.458-0.503-3.353-1.396l-0.643-0.643v7.319c0,0.195-0.167,0.363-0.391,0.363
				c-0.196,0-0.363-0.168-0.363-0.363V54.546z M185.932,56.949c0,2.151,1.9,3.912,3.995,3.912h2.096
				c2.179,0,3.995-1.816,3.995-3.996v-2.318c0-2.18-1.816-3.995-3.995-3.995h-2.096c-2.179,0-3.995,1.815-3.995,3.995v1.62V56.949z"
				/>
		</g>
		<g enable-background="new    ">
			<path fill="#FFFFFF" d="M219.903,61.223c0,0.224-0.168,0.392-0.391,0.392c-0.195,0-0.392-0.168-0.392-0.392V54.63
				c0-2.264-1.899-4.079-4.052-4.079h-1.005c-2.235,0-4.023,1.872-4.079,3.995v6.677c0,0.224-0.168,0.392-0.392,0.392
				c-0.195,0-0.362-0.168-0.362-0.392V54.63c0-2.235-1.9-4.079-4.08-4.079h-1.006c-2.151,0-4.023,1.815-4.079,3.995v6.677
				c0,0.224-0.167,0.392-0.363,0.392c-0.224,0-0.391-0.168-0.391-0.392v-6.649c0.056-2.598,2.207-4.777,4.833-4.777h1.006
				c1.648,0,3.269,0.866,4.134,2.347l0.308,0.531l0.308-0.531c0.979-1.48,2.459-2.347,4.163-2.347h1.005
				c2.6,0,4.778,2.151,4.834,4.777v0.028V61.223z"/>
		</g>
		<g enable-background="new    ">
			<path fill="#FFFFFF" d="M222.916,58.43c0.643,1.48,2.151,2.431,3.716,2.431h5.197c0.195,0,0.362,0.167,0.362,0.362
				c0,0.224-0.167,0.392-0.362,0.392h-5.197c-2.822,0-4.834-2.375-4.834-5.057V54.63c0-2.627,2.207-4.834,4.834-4.834h2.151
				c2.626,0,4.833,2.207,4.833,4.834v1.955c0,0.392-0.307,0.699-0.67,0.699h-10.533L222.916,58.43z M232.862,54.63
				c0-2.207-1.872-4.079-4.079-4.079h-2.151c-2.18,0-4.079,1.844-4.079,4.079v1.899h10.31V54.63z"/>
		</g>
		<g enable-background="new    ">
			<path fill="#FFFFFF" d="M247.751,61.223c0,0.224-0.168,0.392-0.393,0.392c-0.195,0-0.362-0.168-0.362-0.392V54.63
				c0-2.235-1.899-4.079-4.079-4.079h-2.151c-2.179,0-4.023,1.844-4.079,3.995v6.677c0,0.224-0.168,0.392-0.363,0.392
				c-0.224,0-0.391-0.168-0.391-0.392v-6.649c0.055-2.598,2.207-4.777,4.833-4.777h2.151c2.598,0,4.834,2.207,4.834,4.777v0.028
				V61.223z"/>
		</g>
		<g enable-background="new    ">
			<path fill="#FFFFFF" d="M250.96,56.837c0,2.207,1.815,4.023,4.022,4.023h1.062c0.195,0,0.363,0.167,0.363,0.391
				c0,0.195-0.168,0.363-0.363,0.363h-1.062c-2.626,0-4.777-2.151-4.777-4.777V46.36c0-0.195,0.167-0.363,0.363-0.363
				c0.224,0,0.392,0.168,0.392,0.363v3.409h4.805c0.224,0,0.392,0.167,0.392,0.363c0,0.223-0.168,0.391-0.392,0.391h-4.805v4.917
				V56.837z"/>
		</g>
		<g enable-background="new    ">
			<path fill="#FFFFFF" d="M276.661,45.997c0.223,0,0.391,0.168,0.391,0.363c0,0.224-0.168,0.392-0.391,0.392h-5.504
				c-3.186,0-5.812,2.626-5.812,5.812v0.865h10.337c0.195,0,0.363,0.168,0.363,0.363c0,0.224-0.168,0.392-0.363,0.392h-10.337v0.866
				c0,3.185,2.626,5.812,5.812,5.812h5.504c0.223,0,0.391,0.167,0.391,0.391c0,0.195-0.168,0.363-0.391,0.363h-5.504
				c-3.576,0-6.566-2.989-6.566-6.565v-2.486c0-3.549,2.962-6.566,6.566-6.566H276.661z"/>
		</g>
		<g enable-background="new    ">
			<path fill="#FFFFFF" d="M291.576,61.223c0,0.224-0.167,0.392-0.392,0.392c-0.223,0-0.391-0.168-0.391-0.392v-1.062
				c0-2.207-1.844-4.079-4.079-4.079h-2.71c-2.18,0-4.079,1.845-4.079,4.079v1.062c0,0.224-0.167,0.392-0.363,0.392
				c-0.224,0-0.392-0.168-0.392-0.392v-1.062c0-1.676,0.922-3.408,2.486-4.246l0.531-0.279l-0.502-0.308
				c-1.369-0.95-2.236-2.403-2.236-4.079v-1.062c0-0.224,0.168-0.392,0.392-0.392c0.196,0,0.392,0.168,0.392,0.392v1.062
				c0,2.235,1.844,4.079,4.078,4.079h2.124c2.263,0,4.079-1.9,4.079-4.079v-1.062c0-0.224,0.168-0.392,0.391-0.392
				c0.195,0,0.363,0.168,0.363,0.392v1.062c0,1.648-0.838,3.185-2.234,4.079l-0.475,0.308l0.502,0.279
				c1.509,0.838,2.515,2.515,2.515,4.246V61.223z"/>
		</g>
		<g enable-background="new    ">
			<path fill="#FFFFFF" d="M293.529,54.546c0-2.57,2.179-4.75,4.749-4.75h2.096c2.57,0,4.75,2.18,4.75,4.75v2.318
				c0,2.57-2.18,4.75-4.75,4.75h-2.096c-1.257,0-2.458-0.503-3.352-1.396l-0.643-0.643v7.319c0,0.195-0.168,0.363-0.392,0.363
				c-0.196,0-0.363-0.168-0.363-0.363V54.546z M294.284,56.949c0,2.151,1.899,3.912,3.994,3.912h2.096
				c2.18,0,3.996-1.816,3.996-3.996v-2.318c0-2.18-1.816-3.995-3.996-3.995h-2.096c-2.179,0-3.994,1.815-3.994,3.995v1.62V56.949z"
				/>
		</g>
		<g enable-background="new    ">
			<path fill="#FFFFFF" d="M308.78,58.43c0.643,1.48,2.152,2.431,3.717,2.431h5.196c0.195,0,0.362,0.167,0.362,0.362
				c0,0.224-0.167,0.392-0.362,0.392h-5.196c-2.822,0-4.834-2.375-4.834-5.057V54.63c0-2.627,2.207-4.834,4.834-4.834h2.15
				c2.627,0,4.834,2.207,4.834,4.834v1.955c0,0.392-0.308,0.699-0.671,0.699h-10.532L308.78,58.43z M318.727,54.63
				c0-2.207-1.873-4.079-4.08-4.079h-2.15c-2.18,0-4.08,1.844-4.08,4.079v1.899h10.311V54.63z"/>
		</g>
		<g enable-background="new    ">
			<path fill="#FFFFFF" d="M321.796,54.574c0.057-2.598,2.207-4.777,4.834-4.777h1.509c1.285,0,2.515,0.503,3.408,1.425
				c0.084,0.057,0.112,0.168,0.112,0.252c0,0.224-0.168,0.391-0.363,0.391c-0.111,0-0.195-0.027-0.279-0.111
				c-0.783-0.755-1.816-1.201-2.878-1.201h-1.509c-2.151,0-4.023,1.815-4.079,3.995v6.677c0,0.224-0.167,0.392-0.363,0.392
				c-0.224,0-0.392-0.168-0.392-0.392v-6.621V54.574z"/>
		</g>
		<g enable-background="new    ">
			<path fill="#FFFFFF" d="M334.674,56.837c0,2.207,1.815,4.023,4.022,4.023h1.062c0.195,0,0.363,0.167,0.363,0.391
				c0,0.195-0.168,0.363-0.363,0.363h-1.062c-2.625,0-4.777-2.151-4.777-4.777V46.36c0-0.195,0.168-0.363,0.363-0.363
				c0.225,0,0.392,0.168,0.392,0.363v3.409h4.806c0.223,0,0.391,0.167,0.391,0.363c0,0.223-0.168,0.391-0.391,0.391h-4.806v4.917
				V56.837z"/>
		</g>
		<g enable-background="new    ">
			<path fill="#FFFFFF" d="M352.635,53.066c-0.195,0-0.363-0.168-0.363-0.363c0-0.112,0-0.196,0-0.252
				c0-0.363-0.223-0.838-0.475-1.146l-0.111-0.111c-0.391-0.392-0.922-0.615-1.48-0.615h-4.555c-1.146,0-2.096,0.95-2.096,2.096
				c0,4.247,9.807,1.006,9.807,6.062c0,1.537-1.257,2.878-2.877,2.878h-4.974c-1.452,0-2.85-1.201-2.85-2.57
				c0-0.279,0.028-0.727,0.392-0.727c0.223,0,0.391,0.168,0.391,0.392c0,0.14,0,0.224,0,0.307c0,1.006,1.09,1.816,2.067,1.816h4.974
				c1.145,0,2.096-0.95,2.096-2.096c0-1.62-1.481-2.123-2.627-2.347c-2.431-0.475-7.18-0.308-7.18-3.716
				c0-1.62,1.34-2.878,2.877-2.878h4.555c0.754,0,1.48,0.308,2.012,0.839l0.083,0.083c0.419,0.447,0.755,1.118,0.755,1.705
				c0,0.083-0.028,0.167-0.028,0.279C353.027,52.898,352.86,53.066,352.635,53.066z"/>
		</g>
	</g>
	<g enable-background="new    ">
		<path d="M56.611,78.25v2.844c0,0.107-0.091,0.199-0.214,0.199c-0.107,0-0.199-0.092-0.199-0.199v-6.62
			c0-0.458,0.184-0.901,0.504-1.223l0.046-0.046c0.321-0.291,0.734-0.459,1.177-0.459h2.997c1.498,0,2.752,1.254,2.752,2.752
			c0,1.499-1.238,2.722-2.722,2.752H56.611z M60.923,77.837c1.238,0,2.339-1.04,2.339-2.34c0-1.299-1.101-2.339-2.339-2.339h-2.997
			c-0.291,0-0.565,0.092-0.795,0.26v-0.016l-0.138,0.138c-0.245,0.245-0.382,0.581-0.382,0.933v3.364h4.113H60.923z"/>
	</g>
	<g enable-background="new    ">
		<path d="M66.323,77.44c0.031-1.422,1.208-2.615,2.645-2.615h0.826c0.703,0,1.376,0.275,1.865,0.78
			c0.046,0.03,0.061,0.092,0.061,0.138c0,0.122-0.092,0.214-0.199,0.214c-0.061,0-0.107-0.016-0.153-0.062
			c-0.428-0.412-0.994-0.657-1.575-0.657h-0.826c-1.177,0-2.202,0.994-2.232,2.187v3.654c0,0.122-0.091,0.214-0.199,0.214
			c-0.122,0-0.214-0.092-0.214-0.214v-3.624V77.44z"/>
	</g>
	<g enable-background="new    ">
		<path d="M78.615,74.825c1.438,0,2.645,1.208,2.645,2.646v1.177c0,1.438-1.208,2.646-2.645,2.646h-1.177
			c-1.437,0-2.645-1.208-2.645-2.646V77.47c0-1.438,1.208-2.646,2.645-2.646H78.615z M77.438,75.238
			c-1.177,0-2.232,0.994-2.232,2.232v1.177c0,1.193,1.024,2.232,2.232,2.232h1.177c1.208,0,2.232-1.024,2.232-2.232V77.47
			c0-1.224-1.04-2.232-2.232-2.232H77.438z"/>
	</g>
	<g enable-background="new    ">
		<path d="M83.908,75.085c-0.016-0.016-0.016-0.046-0.016-0.077c0-0.092,0.077-0.184,0.199-0.184c0.062,0,0.138,0.046,0.168,0.107
			l2.278,5.458c0.138,0.321,0.413,0.521,0.795,0.521c0.352,0,0.642-0.199,0.795-0.521l2.278-5.458
			c0.016-0.062,0.092-0.107,0.153-0.107c0.107,0,0.199,0.077,0.199,0.184c0,0.031,0,0.062-0.016,0.077l-2.278,5.442
			c-0.199,0.489-0.642,0.765-1.131,0.765c-0.52,0-0.948-0.306-1.147-0.765L83.908,75.085z"/>
	</g>
	<g enable-background="new    ">
		<path d="M94.245,73.373c0,0.153-0.122,0.275-0.275,0.275c-0.153,0-0.275-0.122-0.275-0.275c0-0.152,0.122-0.275,0.275-0.275
			C94.123,73.097,94.245,73.22,94.245,73.373z M93.756,75.116c0-0.122,0.092-0.214,0.214-0.214c0.107,0,0.199,0.092,0.199,0.214
			v5.978c0,0.107-0.092,0.199-0.199,0.199c-0.123,0-0.214-0.092-0.214-0.199V75.116z"/>
	</g>
	<g enable-background="new    ">
		<path d="M104.077,78.678c0,1.437-1.177,2.614-2.614,2.614h-1.147c-1.437,0-2.614-1.178-2.614-2.614v-1.27
			c0-1.422,1.177-2.614,2.614-2.614h1.147c0.688,0,1.376,0.275,1.85,0.765l0.352,0.367v-3.089c0-0.122,0.092-0.214,0.214-0.214
			c0.107,0,0.199,0.092,0.199,0.214V78.678z M103.664,77.363c0-1.177-1.04-2.155-2.202-2.155h-1.147
			c-1.208,0-2.202,0.993-2.202,2.201v1.27c0,1.208,0.994,2.201,2.202,2.201h1.147c1.208,0,2.202-0.993,2.202-2.201v-0.887V77.363z"
			/>
	</g>
	<g enable-background="new    ">
		<path d="M107.978,73.373c0,0.153-0.122,0.275-0.275,0.275c-0.153,0-0.275-0.122-0.275-0.275c0-0.152,0.122-0.275,0.275-0.275
			C107.856,73.097,107.978,73.22,107.978,73.373z M107.489,75.116c0-0.122,0.092-0.214,0.214-0.214c0.107,0,0.199,0.092,0.199,0.214
			v5.978c0,0.107-0.092,0.199-0.199,0.199c-0.123,0-0.214-0.092-0.214-0.199V75.116z"/>
	</g>
	<g enable-background="new    ">
		<path d="M117.901,81.079c0,0.122-0.092,0.214-0.214,0.214c-0.107,0-0.199-0.092-0.199-0.214V77.47c0-1.224-1.04-2.232-2.232-2.232
			h-1.177c-1.192,0-2.202,1.009-2.232,2.187v3.654c0,0.122-0.091,0.214-0.199,0.214c-0.122,0-0.214-0.092-0.214-0.214V77.44
			c0.031-1.422,1.208-2.615,2.645-2.615h1.177c1.422,0,2.645,1.208,2.645,2.615v0.015V81.079z"/>
	</g>
	<g enable-background="new    ">
		<path d="M123.88,80.375c0,0.214,0.168,0.382,0.367,0.382c1.116,0,2.018,0.902,2.018,2.003c0,1.116-0.902,2.019-2.018,2.019
			s-2.019-0.902-2.019-2.019c0-0.107,0.092-0.199,0.214-0.199c0.107,0,0.199,0.092,0.199,0.199c0,0.887,0.719,1.605,1.605,1.605
			s1.605-0.719,1.605-1.605s-0.719-1.605-1.605-1.605c-0.428,0-0.78-0.336-0.78-0.779c0-0.153,0.046-0.261,0.107-0.352l-0.245-0.031
			c-1.269-0.152-2.248-1.3-2.248-2.568c0-1.422,1.192-2.6,2.599-2.6h1.147c1.406,0,2.583,1.178,2.583,2.6
			c0,0.688-0.275,1.346-0.749,1.819c-0.657,0.657-1.376,0.765-2.324,0.765C124.11,80.008,123.88,80.1,123.88,80.375z
			 M123.681,75.238c-1.177,0-2.187,0.979-2.187,2.187c0,1.192,1.009,2.171,2.187,2.171h1.147c1.162,0,2.186-0.963,2.186-2.171
			s-1.024-2.187-2.186-2.187H123.681z"/>
	</g>
	<g enable-background="new    ">
		<path d="M140.626,80.879c0.107,0,0.199,0.092,0.199,0.199c0,0.122-0.092,0.214-0.199,0.214h-2.477
			c-1.437,0-2.645-1.208-2.645-2.646V77.47c0-1.438,1.208-2.646,2.645-2.646h2.477c0.107,0,0.199,0.092,0.199,0.215
			c0,0.106-0.092,0.198-0.199,0.198h-2.477c-1.177,0-2.232,0.994-2.232,2.232v1.177c0,1.208,1.024,2.232,2.232,2.232h2.278H140.626z
			"/>
	</g>
	<g enable-background="new    ">
		<path d="M147.552,74.825c1.438,0,2.645,1.208,2.645,2.646v1.177c0,1.438-1.208,2.646-2.645,2.646h-1.177
			c-1.437,0-2.645-1.208-2.645-2.646V77.47c0-1.438,1.208-2.646,2.645-2.646H147.552z M146.375,75.238
			c-1.177,0-2.232,0.994-2.232,2.232v1.177c0,1.193,1.024,2.232,2.232,2.232h1.177c1.208,0,2.232-1.024,2.232-2.232V77.47
			c0-1.224-1.04-2.232-2.232-2.232H146.375z"/>
	</g>
	<g enable-background="new    ">
		<path d="M159.77,81.079c0,0.122-0.092,0.214-0.214,0.214c-0.107,0-0.199-0.092-0.199-0.214V77.47c0-1.224-1.04-2.232-2.232-2.232
			h-1.177c-1.192,0-2.202,1.009-2.232,2.187v3.654c0,0.122-0.091,0.214-0.199,0.214c-0.122,0-0.214-0.092-0.214-0.214V77.44
			c0.031-1.422,1.208-2.615,2.645-2.615h1.177c1.422,0,2.645,1.208,2.645,2.615v0.015V81.079z"/>
	</g>
	<g enable-background="new    ">
		<path d="M168.411,76.614c-0.107,0-0.199-0.092-0.199-0.198c0-0.062,0-0.107,0-0.138c0-0.199-0.123-0.459-0.26-0.627l-0.061-0.062
			c-0.214-0.214-0.504-0.336-0.811-0.336h-2.492c-0.626,0-1.146,0.52-1.146,1.146c0,2.324,5.367,0.551,5.367,3.317
			c0,0.841-0.688,1.575-1.575,1.575h-2.722c-0.795,0-1.56-0.657-1.56-1.406c0-0.153,0.015-0.397,0.214-0.397
			c0.123,0,0.214,0.091,0.214,0.214c0,0.076,0,0.122,0,0.168c0,0.551,0.596,0.994,1.131,0.994h2.722
			c0.626,0,1.146-0.521,1.146-1.147c0-0.887-0.811-1.161-1.437-1.284c-1.331-0.26-3.93-0.168-3.93-2.033
			c0-0.887,0.734-1.575,1.575-1.575h2.492c0.413,0,0.811,0.169,1.101,0.459l0.046,0.046c0.229,0.245,0.413,0.611,0.413,0.933
			c0,0.046-0.015,0.092-0.015,0.153C168.625,76.522,168.533,76.614,168.411,76.614z"/>
	</g>
	<g enable-background="new    ">
		<path d="M171.898,75.04c0-0.123,0.092-0.215,0.214-0.215c0.107,0,0.199,0.092,0.199,0.215v3.639
			c0.031,1.223,1.055,2.201,2.232,2.201h0.55c1.208,0,2.232-1.024,2.232-2.232V75.04c0-0.123,0.092-0.215,0.199-0.215
			c0.123,0,0.214,0.092,0.214,0.215v3.639c-0.03,1.422-1.208,2.614-2.645,2.614h-0.55c-1.437,0-2.614-1.192-2.645-2.614v-0.016
			V75.04z"/>
	</g>
	<g enable-background="new    ">
		<path d="M180.599,72.945c0-0.107,0.092-0.199,0.199-0.199c0.123,0,0.214,0.092,0.214,0.199v8.148c0,0.107-0.091,0.199-0.214,0.199
			c-0.107,0-0.199-0.092-0.199-0.199V72.945z"/>
	</g>
	<g enable-background="new    ">
		<path d="M184.987,78.678c0,1.208,0.994,2.201,2.202,2.201h0.581c0.107,0,0.199,0.092,0.199,0.214c0,0.107-0.091,0.199-0.199,0.199
			h-0.581c-1.437,0-2.614-1.178-2.614-2.614v-5.733c0-0.107,0.092-0.199,0.199-0.199c0.123,0,0.214,0.092,0.214,0.199v1.865h2.63
			c0.123,0,0.214,0.092,0.214,0.198c0,0.123-0.092,0.214-0.214,0.214h-2.63v2.691V78.678z"/>
	</g>
	<g enable-background="new    ">
		<path d="M191.747,73.373c0,0.153-0.122,0.275-0.275,0.275c-0.153,0-0.275-0.122-0.275-0.275c0-0.152,0.122-0.275,0.275-0.275
			C191.625,73.097,191.747,73.22,191.747,73.373z M191.258,75.116c0-0.122,0.092-0.214,0.214-0.214c0.107,0,0.199,0.092,0.199,0.214
			v5.978c0,0.107-0.092,0.199-0.199,0.199c-0.123,0-0.214-0.092-0.214-0.199V75.116z"/>
	</g>
	<g enable-background="new    ">
		<path d="M201.67,81.079c0,0.122-0.092,0.214-0.214,0.214c-0.107,0-0.199-0.092-0.199-0.214V77.47c0-1.224-1.04-2.232-2.232-2.232
			h-1.177c-1.192,0-2.202,1.009-2.232,2.187v3.654c0,0.122-0.091,0.214-0.199,0.214c-0.122,0-0.214-0.092-0.214-0.214V77.44
			c0.031-1.422,1.208-2.615,2.645-2.615h1.177c1.422,0,2.645,1.208,2.645,2.615v0.015V81.079z"/>
	</g>
	<g enable-background="new    ">
		<path d="M207.65,80.375c0,0.214,0.169,0.382,0.367,0.382c1.116,0,2.019,0.902,2.019,2.003c0,1.116-0.902,2.019-2.019,2.019
			s-2.019-0.902-2.019-2.019c0-0.107,0.092-0.199,0.215-0.199c0.106,0,0.198,0.092,0.198,0.199c0,0.887,0.719,1.605,1.605,1.605
			s1.605-0.719,1.605-1.605s-0.719-1.605-1.605-1.605c-0.429,0-0.78-0.336-0.78-0.779c0-0.153,0.047-0.261,0.107-0.352l-0.244-0.031
			c-1.27-0.152-2.248-1.3-2.248-2.568c0-1.422,1.192-2.6,2.6-2.6h1.146c1.406,0,2.584,1.178,2.584,2.6
			c0,0.688-0.275,1.346-0.75,1.819c-0.656,0.657-1.375,0.765-2.323,0.765C207.88,80.008,207.65,80.1,207.65,80.375z M207.452,75.238
			c-1.178,0-2.187,0.979-2.187,2.187c0,1.192,1.009,2.171,2.187,2.171h1.146c1.162,0,2.186-0.963,2.186-2.171
			s-1.023-2.187-2.186-2.187H207.452z"/>
	</g>
	<g enable-background="new    ">
		<path d="M222.727,74.825c1.422,0,2.66,1.178,2.66,2.646v1.177c0,1.468-1.238,2.646-2.66,2.646h-1.697
			c-1.146,0-2.063-0.917-2.063-2.064c0-1.131,0.917-2.049,2.063-2.049h3.93l-0.061-0.244c-0.245-0.979-1.162-1.697-2.172-1.697
			h-2.706c-0.106,0-0.198-0.092-0.198-0.198c0-0.123,0.092-0.215,0.198-0.215h0.198H222.727z M222.727,80.879
			c1.238,0,2.232-1.039,2.232-2.232v-1.055h-3.93c-0.917,0-1.65,0.734-1.65,1.636c0,0.918,0.733,1.651,1.65,1.651h0.918H222.727z"/>
	</g>
	<g enable-background="new    ">
		<path d="M234.961,81.079c0,0.122-0.092,0.214-0.214,0.214c-0.107,0-0.199-0.092-0.199-0.214V77.47
			c0-1.224-1.039-2.232-2.232-2.232h-1.177c-1.192,0-2.202,1.009-2.232,2.187v3.654c0,0.122-0.091,0.214-0.198,0.214
			c-0.123,0-0.215-0.092-0.215-0.214V77.44c0.031-1.422,1.209-2.615,2.646-2.615h1.177c1.422,0,2.646,1.208,2.646,2.615v0.015
			V81.079z"/>
	</g>
	<g enable-background="new    ">
		<path d="M244.518,78.678c0,1.437-1.178,2.614-2.615,2.614h-1.146c-1.438,0-2.614-1.178-2.614-2.614v-1.27
			c0-1.422,1.177-2.614,2.614-2.614h1.146c0.688,0,1.377,0.275,1.851,0.765l0.352,0.367v-3.089c0-0.122,0.092-0.214,0.214-0.214
			c0.107,0,0.199,0.092,0.199,0.214V78.678z M244.105,77.363c0-1.177-1.04-2.155-2.202-2.155h-1.146
			c-1.207,0-2.201,0.993-2.201,2.201v1.27c0,1.208,0.994,2.201,2.201,2.201h1.146c1.209,0,2.202-0.993,2.202-2.201v-0.887V77.363z"
			/>
	</g>
	<g enable-background="new    ">
		<path d="M252.792,75.04c0-0.123,0.092-0.215,0.215-0.215c0.107,0,0.198,0.092,0.198,0.215v3.639
			c0.03,1.223,1.056,2.201,2.232,2.201h0.55c1.209,0,2.232-1.024,2.232-2.232V75.04c0-0.123,0.092-0.215,0.199-0.215
			c0.123,0,0.214,0.092,0.214,0.215v3.653c0.03,1.162,1.009,2.187,2.232,2.187h0.55c1.193,0,2.218-1.009,2.218-2.232V75.04
			c0-0.123,0.106-0.215,0.214-0.215c0.122,0,0.214,0.092,0.214,0.215v3.639c-0.03,1.437-1.224,2.614-2.646,2.614h-0.55
			c-0.933,0-1.743-0.474-2.278-1.284l-0.168-0.291l-0.168,0.291c-0.475,0.811-1.361,1.284-2.264,1.284h-0.55
			c-1.437,0-2.614-1.192-2.646-2.614v-0.016V75.04z"/>
	</g>
	<g enable-background="new    ">
		<path d="M267.671,79.549c0.352,0.811,1.178,1.33,2.033,1.33h2.844c0.107,0,0.199,0.092,0.199,0.199
			c0,0.122-0.092,0.214-0.199,0.214h-2.844c-1.544,0-2.645-1.3-2.645-2.768V77.47c0-1.438,1.208-2.646,2.645-2.646h1.178
			c1.438,0,2.645,1.208,2.645,2.646v1.07c0,0.214-0.168,0.382-0.366,0.382h-5.765L267.671,79.549z M273.114,77.47
			c0-1.208-1.024-2.232-2.232-2.232h-1.178c-1.191,0-2.232,1.009-2.232,2.232v1.04h5.643V77.47z"/>
	</g>
	<g enable-background="new    ">
		<path d="M276.634,72.837c0-0.122,0.092-0.214,0.199-0.214c0.122,0,0.213,0.092,0.213,0.214v3.089l0.353-0.367
			c0.474-0.505,1.146-0.749,1.85-0.765h1.147c1.437,0,2.613,1.192,2.613,2.614v1.27c0,1.437-1.177,2.614-2.613,2.614h-1.147
			c-1.437,0-2.614-1.178-2.614-2.614V72.837z M277.046,78.678c0,1.208,0.994,2.201,2.202,2.201h1.147
			c1.207,0,2.201-0.993,2.201-2.201v-1.27c0-1.208-0.994-2.201-2.201-2.201h-1.147c-1.177,0-2.202,0.979-2.202,2.155v0.429V78.678z"
			/>
	</g>
	<g enable-background="new    ">
		<path d="M296.359,76.614c-0.107,0-0.198-0.092-0.198-0.198c0-0.062,0-0.107,0-0.138c0-0.199-0.123-0.459-0.261-0.627l-0.062-0.062
			c-0.213-0.214-0.504-0.336-0.811-0.336h-2.492c-0.626,0-1.146,0.52-1.146,1.146c0,2.324,5.367,0.551,5.367,3.317
			c0,0.841-0.688,1.575-1.574,1.575h-2.723c-0.795,0-1.559-0.657-1.559-1.406c0-0.153,0.015-0.397,0.213-0.397
			c0.123,0,0.215,0.091,0.215,0.214c0,0.076,0,0.122,0,0.168c0,0.551,0.596,0.994,1.131,0.994h2.723
			c0.626,0,1.146-0.521,1.146-1.147c0-0.887-0.811-1.161-1.438-1.284c-1.33-0.26-3.93-0.168-3.93-2.033
			c0-0.887,0.734-1.575,1.574-1.575h2.492c0.414,0,0.811,0.169,1.102,0.459l0.046,0.046c0.229,0.245,0.413,0.611,0.413,0.933
			c0,0.046-0.016,0.092-0.016,0.153C296.573,76.522,296.481,76.614,296.359,76.614z"/>
	</g>
	<g enable-background="new    ">
		<path d="M300.457,79.549c0.353,0.811,1.178,1.33,2.034,1.33h2.844c0.106,0,0.198,0.092,0.198,0.199
			c0,0.122-0.092,0.214-0.198,0.214h-2.844c-1.545,0-2.646-1.3-2.646-2.768V77.47c0-1.438,1.208-2.646,2.646-2.646h1.177
			c1.438,0,2.646,1.208,2.646,2.646v1.07c0,0.214-0.168,0.382-0.367,0.382h-5.764L300.457,79.549z M305.9,77.47
			c0-1.208-1.024-2.232-2.232-2.232h-1.177c-1.193,0-2.232,1.009-2.232,2.232v1.04h5.642V77.47z"/>
	</g>
	<g enable-background="new    ">
		<path d="M309.42,77.44c0.03-1.422,1.208-2.615,2.646-2.615h0.825c0.703,0,1.376,0.275,1.865,0.78
			c0.046,0.03,0.062,0.092,0.062,0.138c0,0.122-0.092,0.214-0.199,0.214c-0.061,0-0.107-0.016-0.152-0.062
			c-0.429-0.412-0.994-0.657-1.575-0.657h-0.825c-1.178,0-2.202,0.994-2.232,2.187v3.654c0,0.122-0.092,0.214-0.199,0.214
			c-0.122,0-0.214-0.092-0.214-0.214v-3.624V77.44z"/>
	</g>
	<g enable-background="new    ">
		<path d="M317.432,75.085c-0.016-0.016-0.016-0.046-0.016-0.077c0-0.092,0.076-0.184,0.198-0.184c0.062,0,0.138,0.046,0.169,0.107
			l2.277,5.458c0.138,0.321,0.413,0.521,0.795,0.521c0.352,0,0.643-0.199,0.795-0.521l2.278-5.458
			c0.016-0.062,0.092-0.107,0.153-0.107c0.107,0,0.199,0.077,0.199,0.184c0,0.031,0,0.062-0.016,0.077l-2.278,5.442
			c-0.198,0.489-0.642,0.765-1.132,0.765c-0.52,0-0.947-0.306-1.146-0.765L317.432,75.085z"/>
	</g>
	<g enable-background="new    ">
		<path d="M327.77,73.373c0,0.153-0.123,0.275-0.275,0.275c-0.153,0-0.275-0.122-0.275-0.275c0-0.152,0.122-0.275,0.275-0.275
			C327.647,73.097,327.77,73.22,327.77,73.373z M327.28,75.116c0-0.122,0.092-0.214,0.215-0.214c0.107,0,0.199,0.092,0.199,0.214
			v5.978c0,0.107-0.092,0.199-0.199,0.199c-0.123,0-0.215-0.092-0.215-0.199V75.116z"/>
	</g>
	<g enable-background="new    ">
		<path d="M336.347,80.879c0.106,0,0.198,0.092,0.198,0.199c0,0.122-0.092,0.214-0.198,0.214h-2.478
			c-1.437,0-2.645-1.208-2.645-2.646V77.47c0-1.438,1.208-2.646,2.645-2.646h2.478c0.106,0,0.198,0.092,0.198,0.215
			c0,0.106-0.092,0.198-0.198,0.198h-2.478c-1.177,0-2.232,0.994-2.232,2.232v1.177c0,1.208,1.025,2.232,2.232,2.232h2.279H336.347z
			"/>
	</g>
	<g enable-background="new    ">
		<path d="M340.063,79.549c0.353,0.811,1.178,1.33,2.034,1.33h2.844c0.106,0,0.198,0.092,0.198,0.199
			c0,0.122-0.092,0.214-0.198,0.214h-2.844c-1.544,0-2.646-1.3-2.646-2.768V77.47c0-1.438,1.209-2.646,2.646-2.646h1.177
			c1.438,0,2.646,1.208,2.646,2.646v1.07c0,0.214-0.168,0.382-0.366,0.382h-5.765L340.063,79.549z M345.507,77.47
			c0-1.208-1.023-2.232-2.232-2.232h-1.177c-1.192,0-2.232,1.009-2.232,2.232v1.04h5.642V77.47z"/>
	</g>
	<g enable-background="new    ">
		<path d="M354.483,76.614c-0.107,0-0.199-0.092-0.199-0.198c0-0.062,0-0.107,0-0.138c0-0.199-0.122-0.459-0.26-0.627l-0.061-0.062
			c-0.215-0.214-0.505-0.336-0.811-0.336h-2.492c-0.627,0-1.146,0.52-1.146,1.146c0,2.324,5.366,0.551,5.366,3.317
			c0,0.841-0.688,1.575-1.575,1.575h-2.721c-0.795,0-1.561-0.657-1.561-1.406c0-0.153,0.016-0.397,0.215-0.397
			c0.122,0,0.214,0.091,0.214,0.214c0,0.076,0,0.122,0,0.168c0,0.551,0.597,0.994,1.132,0.994h2.721
			c0.627,0,1.146-0.521,1.146-1.147c0-0.887-0.811-1.161-1.437-1.284c-1.331-0.26-3.93-0.168-3.93-2.033
			c0-0.887,0.733-1.575,1.575-1.575h2.492c0.412,0,0.811,0.169,1.101,0.459l0.046,0.046c0.229,0.245,0.412,0.611,0.412,0.933
			c0,0.046-0.015,0.092-0.015,0.153C354.697,76.522,354.605,76.614,354.483,76.614z"/>
	</g>
	<path opacity="0.5" fill="none" stroke="#FFFFFF" stroke-miterlimit="10" enable-background="new    " d="M371.32,76.095
		c0,8.473-6.867,15.339-15.338,15.339H55.13c-8.473,0-15.34-6.866-15.34-15.339V45.117c0-8.473,6.867-15.339,15.34-15.339h300.854
		c8.471,0,15.338,6.866,15.338,15.339L371.32,76.095L371.32,76.095z"/>
</g>
</svg>
