<?xml version="1.0" encoding="utf-8"?>
<!-- Generator: Adobe Illustrator 15.0.0, SVG Export Plug-In . SVG Version: 6.00 Build 0)  -->
<!DOCTYPE svg PUBLIC "-//W3C//DTD SVG 1.1//EN" "http://www.w3.org/Graphics/SVG/1.1/DTD/svg11.dtd">
<svg version="1.1" id="Layer_1" xmlns="http://www.w3.org/2000/svg" xmlns:xlink="http://www.w3.org/1999/xlink" x="0px" y="0px"
	 width="411.111px" height="121.211px" viewBox="0 0 411.111 121.211" enable-background="new 0 0 411.111 121.211"
	 xml:space="preserve">
<g>
	<g>
		<g enable-background="new    ">
			<path fill="#FFFFFF" d="M93.017,60.498C93.073,60.804,93.324,61,93.603,61c0.196,0,0.419-0.14,0.503-0.363l5.169-13.802
				c0.167-0.447,0.586-0.811,1.146-0.811c0.502,0,0.95,0.363,1.117,0.811l5.169,13.802C106.79,60.861,106.986,61,107.21,61
				c0.223,0,0.531-0.168,0.586-0.503l1.956-14.165c0.028-0.196,0.195-0.308,0.391-0.308c0.14,0.028,0.279,0.168,0.279,0.335
				c0,0.028,0,0.056,0,0.056l-1.984,14.193c-0.056,0.531-0.586,1.034-1.229,1.034c-0.503,0-0.95-0.308-1.118-0.782l-5.169-13.802
				c-0.083-0.196-0.307-0.363-0.502-0.363c-0.224,0-0.447,0.167-0.531,0.363l-5.168,13.802c-0.167,0.446-0.587,0.81-1.118,0.81
				c-0.67,0-1.173-0.503-1.229-1.062L90.39,46.416c0,0,0-0.027,0-0.056c0-0.167,0.112-0.307,0.279-0.335
				c0.196,0,0.363,0.111,0.391,0.308L93.017,60.498z"/>
		</g>
		<g enable-background="new    ">
			<path fill="#FFFFFF" d="M114.525,58.43c0.643,1.48,2.151,2.431,3.716,2.431h5.197c0.195,0,0.363,0.167,0.363,0.362
				c0,0.224-0.167,0.392-0.363,0.392h-5.197c-2.822,0-4.833-2.375-4.833-5.057V54.63c0-2.627,2.207-4.834,4.833-4.834h2.151
				c2.626,0,4.833,2.207,4.833,4.834v1.955c0,0.392-0.308,0.699-0.671,0.699h-10.533L114.525,58.43z M124.471,54.63
				c0-2.207-1.872-4.079-4.079-4.079h-2.151c-2.179,0-4.079,1.844-4.079,4.079v1.899h10.31V54.63z"/>
		</g>
		<g enable-background="new    ">
			<path fill="#FFFFFF" d="M147.487,45.997c0.224,0,0.392,0.168,0.392,0.363c0,0.224-0.168,0.392-0.392,0.392h-5.504
				c-3.185,0-5.811,2.626-5.811,5.812v2.486c0,3.185,2.626,5.812,5.811,5.812h5.504c0.224,0,0.392,0.167,0.392,0.391
				c0,0.195-0.168,0.363-0.392,0.363h-5.504c-3.604,0-6.565-2.989-6.565-6.565v-2.486c0-3.576,2.989-6.566,6.565-6.566H147.487z"/>
		</g>
		<g enable-background="new    ">
			<path fill="#FFFFFF" d="M157.43,49.796c2.599,0,4.862,2.151,4.862,4.834v2.151c0,2.682-2.263,4.833-4.862,4.833h-3.101
				c-2.095,0-3.771-1.677-3.771-3.771c0-2.067,1.676-3.744,3.771-3.744h7.18l-0.112-0.447c-0.447-1.788-2.123-3.101-3.967-3.101
				h-4.945c-0.196,0-0.363-0.168-0.363-0.363c0-0.224,0.167-0.392,0.363-0.392h0.363H157.43z M157.43,60.861
				c2.263,0,4.079-1.9,4.079-4.079v-1.928h-7.18c-1.676,0-3.017,1.341-3.017,2.989c0,1.676,1.341,3.018,3.017,3.018h1.676H157.43z"
				/>
		</g>
		<g enable-background="new    ">
			<path fill="#FFFFFF" d="M177.543,61.223c0,0.224-0.168,0.392-0.392,0.392c-0.195,0-0.363-0.168-0.363-0.392V54.63
				c0-2.235-1.9-4.079-4.079-4.079h-2.151c-2.179,0-4.023,1.844-4.079,3.995v6.677c0,0.224-0.167,0.392-0.363,0.392
				c-0.224,0-0.391-0.168-0.391-0.392v-6.649c0.056-2.598,2.207-4.777,4.833-4.777h2.151c2.598,0,4.833,2.207,4.833,4.777v0.028
				V61.223z"/>
		</g>
		<g enable-background="new    ">
			<path fill="#FFFFFF" d="M188.797,60.693c-0.586-0.587-0.922-1.397-0.922-2.235v-9.304c0-0.838,0.335-1.648,0.922-2.235
				l0.084-0.083c0.586-0.531,1.341-0.839,2.151-0.839h3.883c3.604,0,6.566,3.018,6.566,6.566v2.486c0,3.576-2.962,6.565-6.566,6.565
				h-3.883c-0.811,0-1.565-0.308-2.151-0.838L188.797,60.693z M189.579,60.385c0.419,0.308,0.922,0.476,1.453,0.476h3.883
				c3.157,0,5.839-2.599,5.839-5.812v-2.486c0-3.214-2.682-5.812-5.839-5.812h-3.883c-0.531,0-1.034,0.167-1.453,0.475v-0.027
				l-0.251,0.251c-0.447,0.447-0.698,1.062-0.698,1.704v9.304c0,0.643,0.251,1.258,0.698,1.704l0.251,0.252V60.385z"/>
		</g>
		<g enable-background="new    ">
			<path fill="#FFFFFF" d="M205.557,58.43c0.643,1.48,2.151,2.431,3.715,2.431h5.197c0.195,0,0.363,0.167,0.363,0.362
				c0,0.224-0.168,0.392-0.363,0.392h-5.197c-2.821,0-4.833-2.375-4.833-5.057V54.63c0-2.627,2.207-4.834,4.833-4.834h2.152
				c2.625,0,4.833,2.207,4.833,4.834v1.955c0,0.392-0.308,0.699-0.671,0.699h-10.533L205.557,58.43z M215.503,54.63
				c0-2.207-1.871-4.079-4.078-4.079h-2.152c-2.179,0-4.079,1.844-4.079,4.079v1.899h10.309V54.63z"/>
		</g>
		<g enable-background="new    ">
			<path fill="#FFFFFF" d="M229.665,53.066c-0.195,0-0.363-0.168-0.363-0.363c0-0.112,0-0.196,0-0.252
				c0-0.363-0.224-0.838-0.475-1.146l-0.112-0.111c-0.392-0.392-0.923-0.615-1.481-0.615h-4.554c-1.146,0-2.095,0.95-2.095,2.096
				c0,4.247,9.807,1.006,9.807,6.062c0,1.537-1.258,2.878-2.879,2.878h-4.973c-1.453,0-2.85-1.201-2.85-2.57
				c0-0.279,0.027-0.727,0.391-0.727c0.225,0,0.392,0.168,0.392,0.392c0,0.14,0,0.224,0,0.307c0,1.006,1.09,1.816,2.067,1.816h4.973
				c1.146,0,2.096-0.95,2.096-2.096c0-1.62-1.48-2.123-2.626-2.347c-2.431-0.475-7.181-0.308-7.181-3.716
				c0-1.62,1.342-2.878,2.878-2.878h4.554c0.755,0,1.481,0.308,2.012,0.839l0.084,0.083c0.42,0.447,0.754,1.118,0.754,1.705
				c0,0.083-0.027,0.167-0.027,0.279C230.055,52.898,229.887,53.066,229.665,53.066z"/>
		</g>
		<g enable-background="new    ">
			<path fill="#FFFFFF" d="M234.802,47.142c0,0.279-0.223,0.503-0.502,0.503s-0.504-0.224-0.504-0.503s0.225-0.503,0.504-0.503
				S234.802,46.863,234.802,47.142z M233.908,50.328c0-0.224,0.167-0.392,0.392-0.392c0.195,0,0.363,0.168,0.363,0.392v10.924
				c0,0.195-0.168,0.363-0.363,0.363c-0.225,0-0.392-0.168-0.392-0.363V50.328z"/>
		</g>
		<g enable-background="new    ">
			<path fill="#FFFFFF" d="M243.993,59.938c0,0.392,0.307,0.699,0.67,0.699c2.04,0,3.688,1.648,3.688,3.659
				c0,2.04-1.648,3.688-3.688,3.688c-2.039,0-3.688-1.648-3.688-3.688c0-0.195,0.168-0.362,0.391-0.362
				c0.196,0,0.363,0.167,0.363,0.362c0,1.621,1.314,2.934,2.934,2.934c1.621,0,2.934-1.312,2.934-2.934
				c0-1.62-1.312-2.933-2.934-2.933c-0.781,0-1.424-0.615-1.424-1.426c0-0.279,0.084-0.475,0.195-0.643l-0.447-0.056
				c-2.318-0.279-4.107-2.375-4.107-4.693c0-2.599,2.18-4.75,4.75-4.75h2.096c2.57,0,4.722,2.151,4.722,4.75
				c0,1.257-0.503,2.458-1.369,3.324c-1.202,1.202-2.515,1.397-4.247,1.397C244.412,59.268,243.993,59.435,243.993,59.938z
				 M243.63,50.551c-2.151,0-3.995,1.788-3.995,3.995c0,2.179,1.844,3.967,3.995,3.967h2.096c2.123,0,3.995-1.76,3.995-3.967
				s-1.872-3.995-3.995-3.995H243.63z"/>
		</g>
		<g enable-background="new    ">
			<path fill="#FFFFFF" d="M265.809,61.223c0,0.224-0.168,0.392-0.391,0.392c-0.195,0-0.363-0.168-0.363-0.392V54.63
				c0-2.235-1.9-4.079-4.079-4.079h-2.151c-2.18,0-4.023,1.844-4.079,3.995v6.677c0,0.224-0.167,0.392-0.363,0.392
				c-0.224,0-0.392-0.168-0.392-0.392v-6.649c0.057-2.598,2.207-4.777,4.834-4.777h2.151c2.599,0,4.833,2.207,4.833,4.777v0.028
				V61.223z"/>
		</g>
		<g enable-background="new    ">
			<path fill="#FFFFFF" d="M276.895,56.837c0,2.207,1.816,4.023,4.023,4.023h1.062c0.195,0,0.363,0.167,0.363,0.391
				c0,0.195-0.168,0.363-0.363,0.363h-1.062c-2.626,0-4.777-2.151-4.777-4.777V46.36c0-0.195,0.168-0.363,0.363-0.363
				c0.224,0,0.391,0.168,0.391,0.363v3.409h4.807c0.223,0,0.391,0.167,0.391,0.363c0,0.223-0.168,0.391-0.391,0.391h-4.807v4.917
				V56.837z"/>
		</g>
		<g enable-background="new    ">
			<path fill="#FFFFFF" d="M292.986,49.796c2.626,0,4.833,2.207,4.833,4.834v2.151c0,2.626-2.207,4.833-4.833,4.833h-2.151
				c-2.627,0-4.834-2.207-4.834-4.833V54.63c0-2.627,2.207-4.834,4.834-4.834H292.986z M290.835,50.551
				c-2.151,0-4.079,1.815-4.079,4.079v2.151c0,2.179,1.872,4.079,4.079,4.079h2.151c2.207,0,4.079-1.872,4.079-4.079V54.63
				c0-2.235-1.9-4.079-4.079-4.079H290.835z"/>
		</g>
		<g enable-background="new    ">
			<path fill="#FFFFFF" d="M308.238,49.796c2.626,0,4.833,2.207,4.833,4.834v2.151c0,2.626-2.207,4.833-4.833,4.833h-2.151
				c-2.627,0-4.834-2.207-4.834-4.833V54.63c0-2.627,2.207-4.834,4.834-4.834H308.238z M306.087,50.551
				c-2.151,0-4.079,1.815-4.079,4.079v2.151c0,2.179,1.872,4.079,4.079,4.079h2.151c2.207,0,4.079-1.872,4.079-4.079V54.63
				c0-2.235-1.9-4.079-4.079-4.079H306.087z"/>
		</g>
		<g enable-background="new    ">
			<path fill="#FFFFFF" d="M317.649,61.056c0,0.308-0.279,0.559-0.586,0.559c-0.308,0-0.559-0.251-0.559-0.559
				s0.251-0.559,0.559-0.559C317.37,60.498,317.649,60.749,317.649,61.056z M317.454,58.01c0,0.224-0.168,0.392-0.391,0.392
				c-0.195,0-0.363-0.168-0.363-0.392c0-3.883,0-7.767,0-11.65c0-0.224,0.168-0.391,0.363-0.391c0.223,0,0.391,0.167,0.391,0.391
				C317.454,50.244,317.454,54.127,317.454,58.01z"/>
		</g>
	</g>
	<g enable-background="new    ">
		<path d="M91.83,76.037c0.03,0.165,0.165,0.27,0.315,0.27c0.105,0,0.225-0.075,0.27-0.195l2.775-7.409
			c0.09-0.24,0.315-0.436,0.615-0.436c0.27,0,0.51,0.195,0.6,0.436l2.775,7.409c0.045,0.12,0.15,0.195,0.27,0.195
			c0.12,0,0.285-0.09,0.315-0.27l1.05-7.605c0.015-0.104,0.105-0.165,0.21-0.165c0.075,0.016,0.15,0.091,0.15,0.181
			c0,0.015,0,0.029,0,0.029l-1.065,7.62c-0.03,0.285-0.315,0.555-0.66,0.555c-0.27,0-0.51-0.165-0.6-0.42l-2.775-7.409
			c-0.045-0.105-0.165-0.195-0.27-0.195c-0.12,0-0.24,0.09-0.285,0.195l-2.775,7.409c-0.09,0.24-0.315,0.436-0.6,0.436
			c-0.36,0-0.63-0.271-0.66-0.57l-1.065-7.62c0,0,0-0.015,0-0.029c0-0.09,0.06-0.165,0.15-0.181c0.105,0,0.195,0.061,0.21,0.165
			L91.83,76.037z"/>
	</g>
	<g enable-background="new    ">
		<path d="M103.08,74.926c0.345,0.795,1.155,1.305,1.995,1.305h2.79c0.105,0,0.195,0.09,0.195,0.195c0,0.12-0.09,0.21-0.195,0.21
			h-2.79c-1.515,0-2.595-1.275-2.595-2.715v-1.035c0-1.41,1.185-2.595,2.595-2.595h1.155c1.41,0,2.595,1.185,2.595,2.595v1.05
			c0,0.21-0.165,0.375-0.36,0.375h-5.655L103.08,74.926z M108.42,72.886c0-1.185-1.005-2.189-2.19-2.189h-1.155
			c-1.17,0-2.19,0.989-2.19,2.189v1.021h5.535V72.886z"/>
	</g>
	<g enable-background="new    ">
		<path d="M119.353,76.441c0,0.105-0.09,0.195-0.21,0.195c-0.105,0-0.195-0.09-0.195-0.195v-3.614c0-1.17-0.99-2.16-2.16-2.16
			h-0.525c-1.17,0-2.13,0.96-2.16,2.115v3.659c0,0.105-0.09,0.195-0.21,0.195c-0.105,0-0.195-0.09-0.195-0.195v-7.994
			c0-0.105,0.09-0.195,0.195-0.195c0.12,0,0.21,0.09,0.21,0.195v2.925l0.345-0.36c0.465-0.495,1.125-0.734,1.815-0.75h0.525
			c1.38,0,2.535,1.155,2.565,2.535V76.441z"/>
	</g>
	<g enable-background="new    ">
		<path d="M124.438,70.292c1.395,0,2.61,1.155,2.61,2.595v1.155c0,1.439-1.215,2.595-2.61,2.595h-1.665
			c-1.125,0-2.025-0.9-2.025-2.025c0-1.109,0.9-2.01,2.025-2.01h3.854l-0.06-0.239c-0.24-0.96-1.14-1.665-2.13-1.665h-2.655
			c-0.105,0-0.195-0.09-0.195-0.195c0-0.12,0.09-0.21,0.195-0.21h0.195H124.438z M124.438,76.231c1.215,0,2.19-1.02,2.19-2.189
			v-1.035h-3.854c-0.9,0-1.62,0.72-1.62,1.604c0,0.9,0.72,1.62,1.62,1.62h0.9H124.438z"/>
	</g>
	<g enable-background="new    ">
		<path d="M128.143,70.546c-0.015-0.015-0.015-0.045-0.015-0.075c0-0.09,0.075-0.18,0.195-0.18c0.06,0,0.135,0.045,0.165,0.104
			l2.235,5.355c0.135,0.314,0.405,0.51,0.78,0.51c0.345,0,0.63-0.195,0.78-0.51l2.235-5.355c0.015-0.06,0.09-0.104,0.15-0.104
			c0.105,0,0.195,0.075,0.195,0.18c0,0.03,0,0.061-0.015,0.075l-2.235,5.34c-0.195,0.48-0.63,0.75-1.11,0.75
			c-0.51,0-0.93-0.3-1.125-0.75L128.143,70.546z"/>
	</g>
	<g enable-background="new    ">
		<path d="M136.844,74.926c0.345,0.795,1.155,1.305,1.995,1.305h2.79c0.105,0,0.195,0.09,0.195,0.195c0,0.12-0.09,0.21-0.195,0.21
			h-2.79c-1.515,0-2.595-1.275-2.595-2.715v-1.035c0-1.41,1.185-2.595,2.595-2.595h1.155c1.41,0,2.595,1.185,2.595,2.595v1.05
			c0,0.21-0.165,0.375-0.36,0.375h-5.655L136.844,74.926z M142.184,72.886c0-1.185-1.005-2.189-2.19-2.189h-1.155
			c-1.17,0-2.19,0.989-2.19,2.189v1.021h5.535V72.886z"/>
	</g>
	<g enable-background="new    ">
		<path d="M150.852,70.292c1.395,0,2.61,1.155,2.61,2.595v1.155c0,1.439-1.215,2.595-2.61,2.595h-1.665
			c-1.125,0-2.025-0.9-2.025-2.025c0-1.109,0.9-2.01,2.025-2.01h3.854l-0.06-0.239c-0.24-0.96-1.14-1.665-2.13-1.665h-2.655
			c-0.105,0-0.195-0.09-0.195-0.195c0-0.12,0.09-0.21,0.195-0.21h0.195H150.852z M150.852,76.231c1.215,0,2.19-1.02,2.19-2.189
			v-1.035h-3.854c-0.9,0-1.62,0.72-1.62,1.604c0,0.9,0.72,1.62,1.62,1.62h0.9H150.852z"/>
	</g>
	<g enable-background="new    ">
		<path d="M161.352,76.426c0,0.12-0.09,0.21-0.21,0.21c-0.105,0-0.195-0.09-0.195-0.21v-3.54c0-1.2-1.02-2.189-2.19-2.189h-1.155
			c-1.17,0-2.16,0.989-2.19,2.145v3.585c0,0.12-0.09,0.21-0.195,0.21c-0.12,0-0.21-0.09-0.21-0.21v-3.57
			c0.03-1.395,1.185-2.564,2.595-2.564h1.155c1.395,0,2.595,1.185,2.595,2.564v0.016V76.426z"/>
	</g>
	<g enable-background="new    ">
		<path d="M166.903,74.926c0.345,0.795,1.155,1.305,1.995,1.305h2.79c0.105,0,0.195,0.09,0.195,0.195c0,0.12-0.09,0.21-0.195,0.21
			h-2.79c-1.515,0-2.595-1.275-2.595-2.715v-1.035c0-1.41,1.185-2.595,2.595-2.595h1.155c1.41,0,2.595,1.185,2.595,2.595v1.05
			c0,0.21-0.165,0.375-0.36,0.375h-5.655L166.903,74.926z M172.242,72.886c0-1.185-1.005-2.189-2.19-2.189h-1.155
			c-1.17,0-2.19,0.989-2.19,2.189v1.021h5.535V72.886z"/>
	</g>
	<g enable-background="new    ">
		<path d="M180.537,76.426c0,0.12-0.09,0.21-0.21,0.21c-0.105,0-0.195-0.09-0.195-0.21v-3.54c0-1.2-1.02-2.189-2.19-2.189h-1.155
			c-1.17,0-2.16,0.989-2.19,2.145v3.585c0,0.12-0.09,0.21-0.195,0.21c-0.12,0-0.21-0.09-0.21-0.21v-3.57
			c0.03-1.395,1.185-2.564,2.595-2.564h1.155c1.395,0,2.595,1.185,2.595,2.564v0.016V76.426z"/>
	</g>
	<g enable-background="new    ">
		<path d="M188.412,74.072c0,1.409-1.155,2.564-2.565,2.564h-1.125c-1.41,0-2.565-1.155-2.565-2.564v-1.245
			c0-1.396,1.155-2.565,2.565-2.565h1.125c0.675,0,1.35,0.271,1.815,0.75l0.345,0.36v-3.03c0-0.12,0.09-0.21,0.21-0.21
			c0.105,0,0.195,0.09,0.195,0.21V74.072z M188.007,72.782c0-1.155-1.02-2.115-2.16-2.115h-1.125c-1.185,0-2.16,0.975-2.16,2.16
			v1.245c0,1.185,0.975,2.159,2.16,2.159h1.125c1.185,0,2.16-0.975,2.16-2.159v-0.87V72.782z"/>
	</g>
	<g enable-background="new    ">
		<path d="M190.198,68.447c0-0.105,0.09-0.195,0.195-0.195c0.12,0,0.21,0.09,0.21,0.195v7.994c0,0.105-0.09,0.195-0.21,0.195
			c-0.105,0-0.195-0.09-0.195-0.195V68.447z"/>
	</g>
	<g enable-background="new    ">
		<path d="M193.197,74.926c0.345,0.795,1.155,1.305,1.995,1.305h2.79c0.105,0,0.195,0.09,0.195,0.195c0,0.12-0.09,0.21-0.195,0.21
			h-2.79c-1.515,0-2.595-1.275-2.595-2.715v-1.035c0-1.41,1.185-2.595,2.595-2.595h1.155c1.41,0,2.595,1.185,2.595,2.595v1.05
			c0,0.21-0.165,0.375-0.36,0.375h-5.655L193.197,74.926z M198.536,72.886c0-1.185-1.005-2.189-2.19-2.189h-1.155
			c-1.17,0-2.19,0.989-2.19,2.189v1.021h5.535V72.886z"/>
	</g>
	<g enable-background="new    ">
		<path d="M205.842,72.046c-0.105,0-0.195-0.09-0.195-0.195c0-0.06,0-0.104,0-0.135c0-0.195-0.12-0.45-0.255-0.615l-0.06-0.06
			c-0.21-0.21-0.495-0.33-0.795-0.33h-2.445c-0.615,0-1.125,0.51-1.125,1.125c0,2.28,5.265,0.54,5.265,3.255
			c0,0.825-0.675,1.545-1.545,1.545h-2.67c-0.78,0-1.53-0.645-1.53-1.38c0-0.15,0.015-0.39,0.21-0.39c0.12,0,0.21,0.09,0.21,0.21
			c0,0.074,0,0.12,0,0.165c0,0.54,0.585,0.975,1.11,0.975h2.67c0.615,0,1.125-0.51,1.125-1.125c0-0.87-0.795-1.14-1.41-1.26
			c-1.305-0.255-3.855-0.165-3.855-1.995c0-0.87,0.72-1.545,1.545-1.545h2.445c0.405,0,0.795,0.165,1.08,0.45l0.045,0.045
			c0.225,0.24,0.405,0.6,0.405,0.915c0,0.045-0.015,0.09-0.015,0.149C206.052,71.957,205.961,72.046,205.842,72.046z"/>
	</g>
	<g enable-background="new    ">
		<path d="M213.116,72.046c-0.104,0-0.195-0.09-0.195-0.195c0-0.06,0-0.104,0-0.135c0-0.195-0.119-0.45-0.254-0.615l-0.061-0.06
			c-0.21-0.21-0.495-0.33-0.795-0.33h-2.445c-0.615,0-1.125,0.51-1.125,1.125c0,2.28,5.266,0.54,5.266,3.255
			c0,0.825-0.676,1.545-1.545,1.545h-2.67c-0.78,0-1.53-0.645-1.53-1.38c0-0.15,0.015-0.39,0.21-0.39c0.12,0,0.21,0.09,0.21,0.21
			c0,0.074,0,0.12,0,0.165c0,0.54,0.585,0.975,1.11,0.975h2.67c0.615,0,1.125-0.51,1.125-1.125c0-0.87-0.795-1.14-1.41-1.26
			c-1.305-0.255-3.855-0.165-3.855-1.995c0-0.87,0.721-1.545,1.545-1.545h2.445c0.404,0,0.795,0.165,1.08,0.45l0.045,0.045
			c0.225,0.24,0.404,0.6,0.404,0.915c0,0.045-0.014,0.09-0.014,0.149C213.327,71.957,213.236,72.046,213.116,72.046z"/>
	</g>
	<g enable-background="new    ">
		<path d="M218.366,68.447c0-0.105,0.09-0.195,0.195-0.195c0.12,0,0.21,0.09,0.21,0.195v7.994c0,0.105-0.09,0.195-0.21,0.195
			c-0.105,0-0.195-0.09-0.195-0.195V68.447z"/>
	</g>
	<g enable-background="new    ">
		<path d="M221.305,68.867c0,0.149-0.119,0.27-0.27,0.27s-0.27-0.12-0.27-0.27c0-0.15,0.119-0.271,0.27-0.271
			S221.305,68.716,221.305,68.867z M220.826,70.577c0-0.12,0.09-0.21,0.21-0.21c0.105,0,0.195,0.09,0.195,0.21v5.864
			c0,0.105-0.09,0.195-0.195,0.195c-0.12,0-0.21-0.09-0.21-0.195V70.577z"/>
	</g>
	<g enable-background="new    ">
		<path d="M234.251,76.426c0,0.12-0.09,0.21-0.209,0.21c-0.105,0-0.211-0.09-0.211-0.21v-3.54c0-1.215-1.02-2.189-2.175-2.189h-0.54
			c-1.199,0-2.16,1.005-2.189,2.145v3.585c0,0.12-0.09,0.21-0.211,0.21c-0.104,0-0.194-0.09-0.194-0.21v-3.54
			c0-1.2-1.021-2.189-2.19-2.189h-0.539c-1.155,0-2.16,0.975-2.19,2.145v3.585c0,0.12-0.09,0.21-0.194,0.21
			c-0.121,0-0.211-0.09-0.211-0.21v-3.57c0.03-1.395,1.186-2.564,2.596-2.564h0.539c0.886,0,1.756,0.465,2.221,1.26l0.164,0.285
			l0.166-0.285c0.525-0.795,1.32-1.26,2.234-1.26h0.54c1.396,0,2.565,1.155,2.595,2.564v0.016V76.426z"/>
	</g>
	<g enable-background="new    ">
		<path d="M236.112,68.867c0,0.149-0.121,0.27-0.271,0.27s-0.271-0.12-0.271-0.27c0-0.15,0.121-0.271,0.271-0.271
			S236.112,68.716,236.112,68.867z M235.632,70.577c0-0.12,0.09-0.21,0.21-0.21c0.104,0,0.194,0.09,0.194,0.21v5.864
			c0,0.105-0.09,0.195-0.194,0.195c-0.12,0-0.21-0.09-0.21-0.195V70.577z"/>
	</g>
	<g enable-background="new    ">
		<path d="M238.407,74.072c0,1.185,0.975,2.159,2.16,2.159h0.569c0.104,0,0.195,0.09,0.195,0.21c0,0.105-0.091,0.195-0.195,0.195
			h-0.569c-1.41,0-2.565-1.155-2.565-2.564v-5.625c0-0.105,0.09-0.195,0.194-0.195c0.121,0,0.211,0.09,0.211,0.195v1.83h2.58
			c0.119,0,0.209,0.09,0.209,0.194c0,0.12-0.09,0.21-0.209,0.21h-2.58v2.641V74.072z"/>
	</g>
	<g enable-background="new    ">
		<path d="M250.075,70.292c1.41,0,2.596,1.185,2.596,2.595v1.155c0,1.41-1.186,2.595-2.596,2.595h-1.154
			c-1.41,0-2.596-1.185-2.596-2.595v-1.155c0-1.41,1.186-2.595,2.596-2.595H250.075z M248.921,70.697
			c-1.155,0-2.19,0.975-2.19,2.189v1.155c0,1.17,1.005,2.189,2.19,2.189h1.154c1.186,0,2.19-1.005,2.19-2.189v-1.155
			c0-1.2-1.021-2.189-2.19-2.189H248.921z"/>
	</g>
	<g enable-background="new    ">
		<path d="M254.215,70.817c0-1.41,1.155-2.565,2.565-2.565h0.569c0.104,0,0.195,0.09,0.195,0.195c0,0.12-0.091,0.21-0.195,0.21
			h-0.569c-1.186,0-2.16,0.96-2.16,2.16v3.119h2.58c0.119,0,0.209,0.09,0.209,0.21c0,0.105-0.09,0.195-0.209,0.195h-2.58v2.1
			c0,0.105-0.09,0.195-0.211,0.195c-0.104,0-0.194-0.09-0.194-0.195v-4.874V70.817z"/>
	</g>
	<g enable-background="new    ">
		<path d="M267.444,76.231c0.105,0,0.195,0.09,0.195,0.195c0,0.12-0.09,0.21-0.195,0.21h-2.43c-1.41,0-2.595-1.185-2.595-2.595
			v-1.155c0-1.41,1.185-2.595,2.595-2.595h2.43c0.105,0,0.195,0.09,0.195,0.21c0,0.105-0.09,0.195-0.195,0.195h-2.43
			c-1.154,0-2.189,0.975-2.189,2.189v1.155c0,1.185,1.005,2.189,2.189,2.189h2.234H267.444z"/>
	</g>
	<g enable-background="new    ">
		<path d="M268.989,72.856c0.03-1.395,1.186-2.564,2.596-2.564h0.81c0.69,0,1.351,0.27,1.83,0.765c0.045,0.03,0.06,0.09,0.06,0.136
			c0,0.119-0.09,0.21-0.195,0.21c-0.059,0-0.104-0.016-0.149-0.061c-0.42-0.405-0.976-0.645-1.545-0.645h-0.81
			c-1.155,0-2.16,0.975-2.19,2.145v3.585c0,0.12-0.09,0.21-0.194,0.21c-0.121,0-0.211-0.09-0.211-0.21v-3.555V72.856z"/>
	</g>
	<g enable-background="new    ">
		<path d="M276.399,74.926c0.346,0.795,1.155,1.305,1.995,1.305h2.79c0.105,0,0.195,0.09,0.195,0.195c0,0.12-0.09,0.21-0.195,0.21
			h-2.79c-1.515,0-2.595-1.275-2.595-2.715v-1.035c0-1.41,1.186-2.595,2.595-2.595h1.155c1.41,0,2.595,1.185,2.595,2.595v1.05
			c0,0.21-0.165,0.375-0.36,0.375h-5.654L276.399,74.926z M281.739,72.886c0-1.185-1.005-2.189-2.189-2.189h-1.155
			c-1.17,0-2.19,0.989-2.19,2.189v1.021h5.535V72.886z"/>
	</g>
	<g enable-background="new    ">
		<path d="M287.079,70.292c1.395,0,2.609,1.155,2.609,2.595v1.155c0,1.439-1.215,2.595-2.609,2.595h-1.665
			c-1.125,0-2.024-0.9-2.024-2.025c0-1.109,0.899-2.01,2.024-2.01h3.854l-0.061-0.239c-0.239-0.96-1.139-1.665-2.129-1.665h-2.655
			c-0.104,0-0.194-0.09-0.194-0.195c0-0.12,0.09-0.21,0.194-0.21h0.195H287.079z M287.079,76.231c1.215,0,2.189-1.02,2.189-2.189
			v-1.035h-3.854c-0.899,0-1.62,0.72-1.62,1.604c0,0.9,0.721,1.62,1.62,1.62h0.899H287.079z"/>
	</g>
	<g enable-background="new    ">
		<path d="M291.638,74.072c0,1.185,0.976,2.159,2.16,2.159h0.569c0.105,0,0.195,0.09,0.195,0.21c0,0.105-0.09,0.195-0.195,0.195
			h-0.569c-1.41,0-2.565-1.155-2.565-2.564v-5.625c0-0.105,0.09-0.195,0.195-0.195c0.12,0,0.21,0.09,0.21,0.195v1.83h2.58
			c0.12,0,0.21,0.09,0.21,0.194c0,0.12-0.09,0.21-0.21,0.21h-2.58v2.641V74.072z"/>
	</g>
	<g enable-background="new    ">
		<path d="M296.77,68.867c0,0.149-0.121,0.27-0.271,0.27s-0.271-0.12-0.271-0.27c0-0.15,0.121-0.271,0.271-0.271
			S296.77,68.716,296.77,68.867z M296.29,70.577c0-0.12,0.09-0.21,0.21-0.21c0.104,0,0.194,0.09,0.194,0.21v5.864
			c0,0.105-0.09,0.195-0.194,0.195c-0.12,0-0.21-0.09-0.21-0.195V70.577z"/>
	</g>
	<g enable-background="new    ">
		<path d="M298.21,70.546c-0.015-0.015-0.015-0.045-0.015-0.075c0-0.09,0.075-0.18,0.194-0.18c0.061,0,0.136,0.045,0.166,0.104
			l2.234,5.355c0.135,0.314,0.404,0.51,0.779,0.51c0.346,0,0.631-0.195,0.781-0.51l2.234-5.355c0.016-0.06,0.09-0.104,0.15-0.104
			c0.104,0,0.194,0.075,0.194,0.18c0,0.03,0,0.061-0.015,0.075l-2.234,5.34c-0.195,0.48-0.631,0.75-1.111,0.75
			c-0.51,0-0.93-0.3-1.124-0.75L298.21,70.546z"/>
	</g>
	<g enable-background="new    ">
		<path d="M306.848,68.867c0,0.149-0.119,0.27-0.27,0.27s-0.27-0.12-0.27-0.27c0-0.15,0.119-0.271,0.27-0.271
			S306.848,68.716,306.848,68.867z M306.369,70.577c0-0.12,0.09-0.21,0.21-0.21c0.105,0,0.195,0.09,0.195,0.21v5.864
			c0,0.105-0.09,0.195-0.195,0.195c-0.12,0-0.21-0.09-0.21-0.195V70.577z"/>
	</g>
	<g enable-background="new    ">
		<path d="M309.143,74.072c0,1.185,0.975,2.159,2.16,2.159h0.57c0.104,0,0.195,0.09,0.195,0.21c0,0.105-0.091,0.195-0.195,0.195
			h-0.57c-1.41,0-2.564-1.155-2.564-2.564v-5.625c0-0.105,0.09-0.195,0.194-0.195c0.12,0,0.21,0.09,0.21,0.195v1.83h2.58
			c0.12,0,0.21,0.09,0.21,0.194c0,0.12-0.09,0.21-0.21,0.21h-2.58v2.641V74.072z"/>
	</g>
	<g enable-background="new    ">
		<path d="M318.833,76.997c0,1.38-1.17,2.55-2.549,2.55h-0.57c-0.105,0-0.195-0.09-0.195-0.195c0-0.12,0.09-0.21,0.195-0.21h0.57
			c1.17,0,2.145-0.975,2.145-2.145v-2.7l-0.346,0.345c-0.479,0.48-1.124,0.75-1.799,0.75c-1.381,0-2.551-1.17-2.551-2.55v-2.354
			c0-0.105,0.09-0.195,0.195-0.195c0.12,0,0.21,0.09,0.21,0.195v2.354c0,1.17,0.976,2.145,2.146,2.145s2.145-0.975,2.145-2.145
			v-2.37l0.016-0.015v-0.03l0.014-0.03l0.016-0.015l0.016-0.03l0.029-0.029l0.03-0.016l0.03-0.015h0.029h0.03h0.03h0.029
			l0.016,0.015l0.029,0.016l0.016,0.015l0.016,0.015l0.014,0.016l0.016,0.029l0.016,0.016l0.014,0.015v0.03v0.03V76.997z"/>
	</g>
	<path opacity="0.5" fill="none" stroke="#FFFFFF" stroke-miterlimit="10" enable-background="new    " d="M349.158,76.095
		c0,8.473-6.865,15.339-15.338,15.339H77.291c-8.472,0-15.338-6.866-15.338-15.339V45.117c0-8.473,6.866-15.339,15.338-15.339
		H333.82c8.473,0,15.338,6.866,15.338,15.339V76.095L349.158,76.095z"/>
</g>
</svg>
